<?xml version="1.0" encoding="UTF-8" standalone="no"?>
<!-- Created with Inkscape (http://www.inkscape.org/) -->

<svg
   version="1.1"
   id="svg1"
   width="200"
   height="200"
   viewBox="0 0 200 200.00001"
   sodipodi:docname="barquito-pucp.svg"
   inkscape:version="1.3.2 (091e20e, 2023-11-25, custom)"
   xmlns:inkscape="http://www.inkscape.org/namespaces/inkscape"
   xmlns:sodipodi="http://sodipodi.sourceforge.net/DTD/sodipodi-0.dtd"
   xmlns="http://www.w3.org/2000/svg"
   xmlns:svg="http://www.w3.org/2000/svg">
  <sodipodi:namedview
     id="namedview1"
     pagecolor="#ffffff"
     bordercolor="#000000"
     borderopacity="0.25"
     inkscape:showpageshadow="2"
     inkscape:pageopacity="0.0"
     inkscape:pagecheckerboard="0"
     inkscape:deskcolor="#d1d1d1"
     inkscape:zoom="0.68068755"
     inkscape:cx="364.3375"
     inkscape:cy="603.06671"
     inkscape:window-width="1920"
     inkscape:window-height="1017"
     inkscape:window-x="-8"
     inkscape:window-y="-8"
     inkscape:window-maximized="1"
     inkscape:current-layer="svg1" />
  <defs
     id="defs1" />
  <g
     id="g77">
    <g
       id="g78"
       transform="translate(-23.892687,-25.970312)">
      <g
         id="g76"
         transform="translate(-58.764107,-436.3235)">
        <path
           id="path53"
           d="m 1442.35,4217.82 c 11.52,-4.22 22.71,-7.91 34.45,-11.34 61.23,-16.96 140.05,8.11 150.54,11.98 22.57,8.01 71.72,32.94 90.21,44.5 l -4.66,10.94 c -7.28,0.71 -31.4,3.68 -31.4,3.68 -30.26,4.91 -59.64,11.95 -88.63,20.32 -51.71,15.31 -101.87,34.91 -150.51,58.34 -23.96,11.76 -203.59,117.64 -247.3,144.44 -113.38,69.48 -199.515,77.98 -268.323,86.07 -0.36,-2.53 -1.293,-5.1 -1.829,-6.29 124.082,-58.29 191.042,-151.43 283.182,-223.33 73.11,-57 150.47,-108.34 234.27,-139.31"
           style="fill:#122657;fill-opacity:1;fill-rule:nonzero;stroke:none"
           transform="matrix(0.13333333,0,0,-0.13333333,0,1206.1333)" />
        <path
           id="path54"
           d="m 791.449,4553.6 c 0,0 -3.566,-2.13 -5.179,-3.37 50.406,-152.39 290.93,-400.52 613.31,-379.7 0.92,3.65 3.35,12.47 3.71,14.2 -15.78,5.49 -21.6,8.48 -35.85,15.95 -151.42,68.5 -274.97,211.21 -336.95,263.29 -85.658,72.03 -161.17,111.67 -239.041,89.63"
           style="fill:#122657;fill-opacity:1;fill-rule:nonzero;stroke:none"
           transform="matrix(0.13333333,0,0,-0.13333333,0,1206.1333)" />
        <path
           id="path55"
           d="m 1927.5,4480.6 c -1.57,1.61 -3,3.47 -4.57,5.15 -215.89,-109.77 -548.18,-26.29 -630.59,3.25 -1.07,-1.13 -3.86,-5.22 -4.94,-6.5 44.22,-29.15 212.83,-124.65 318.4,-150.15 68.96,-16.46 169.91,-29.7 240.81,31.44 27.42,27.53 65.04,72.42 88.05,109.94 -1.66,1.65 -5.69,5.3 -7.16,6.87"
           style="fill:#122657;fill-opacity:1;fill-rule:nonzero;stroke:none"
           transform="matrix(0.13333333,0,0,-0.13333333,0,1206.1333)" />
        <path
           id="path56"
           d="m 1773.87,4616.86 -5.32,-2.39 c -40.62,44.46 -91.41,79.46 -148.7,101.33 -15.46,40.73 -23.94,84.89 -23.94,131.06 0,41.57 6.88,81.54 19.56,118.83 -38.59,16.77 -80.42,27.49 -124.28,30.97 l -1.52,-4.85 c 36.19,-5.66 70.3,-17.6 101.19,-34.67 -19.46,-45.66 -30.21,-95.94 -30.21,-148.72 0,-45.67 8.05,-89.46 22.83,-130.02 0.71,-1.99 1.47,-3.99 2.24,-5.99 -93.06,67.78 -179.75,105.26 -243.01,105.26 -24.13,0 -44.85,-5.46 -61.23,-16.74 l 5.76,-35.39 c -5.12,8.7 -9.66,17.78 -13.54,27.18 -10.75,25.95 -16.68,54.41 -16.68,84.25 0,44.62 13.27,86.14 36.05,120.84 20.81,11.37 43.06,20.42 66.41,26.81 l 0.22,0.69 0.18,0.16 c 7.21,20.67 16.04,40.56 26.37,59.53 56.85,31.2 122.12,48.94 191.55,48.94 35.16,0 69.27,-4.55 101.75,-13.11 36.01,-9.48 70.04,-23.86 101.32,-42.41 -25.17,-45.42 -42.68,-95.66 -50.82,-148.99 -3.42,-22.29 -5.18,-45.13 -5.18,-68.38 0,-73.54 17.66,-142.93 49,-204.19 z m -238.01,559.23 c 26.15,0 50.7,-6.83 71.96,-18.81 l -11.11,-48.79 c -32.55,27.33 -73.68,44.79 -118.76,47.76 l -1.82,7.19 c 18.25,8.13 38.46,12.65 59.73,12.65 z m -322.84,-92.54 c 0,0 -49.56,-7.16 -65.58,-11.14 -19.46,-4.74 -30.32,-16.75 -32.84,-44.11 -4.31,-45.14 -12.11,-122.35 -12.11,-122.35 h -13.56 c 0,0 -7.61,77.21 -11.82,122.35 -2.77,27.36 -13.69,39.37 -33.09,44.11 -16.12,3.98 -65.579,11.14 -65.579,11.14 v 12.69 c 0,0 51.719,5.53 68.369,11.14 12.51,4.24 25.38,8.98 31.59,31.63 5,17.4 10.99,71.61 10.99,71.61 h 6.44 6.24 c 0,0 5.94,-54.21 10.91,-71.61 6.48,-22.65 19.3,-27.39 31.7,-31.63 16.65,-5.61 68.34,-11.14 68.34,-11.14 z m 166.91,382.49 c -360.64,0 -653.133,-292.37 -653.133,-652.98 0,-77.55 13.578,-151.95 38.367,-220.94 169.934,79.3 394.126,-13.73 504.646,-59.68 16.14,-6.7 30.18,-12.53 41.24,-16.68 l -31.1,72.53 -23.94,55.88 c 0,6.24 0.31,12.55 1,18.78 3.56,21.83 15.18,40.95 31.73,54.21 21.92,-84.79 49.53,-134.42 63.45,-155.78 5.53,-8.47 8.9,-12.5 8.9,-12.5 l 10.79,-2.18 c 0,0 -2.89,5.49 -7.28,16.81 -9.99,25.68 -27.7,81.47 -36.7,171.51 0.05,0 0.09,0.01 0.13,0.01 7.19,1.22 14.8,1.56 22.9,1.06 57.6,-3.36 138.98,-48.29 256.38,-121.43 74.54,-46.36 164.55,-54.98 202.01,1.9 h 47.37 l -30.41,-94.83 c -4.29,-12.22 -11.19,-23.07 -20,-31.94 94.08,24.04 168.29,72.11 203.99,153.09 10.32,26.21 22.52,111.31 22.52,170.18 0,360.61 -292.21,652.98 -652.86,652.98"
           style="fill:#122657;fill-opacity:1;fill-rule:nonzero;stroke:none"
           transform="matrix(0.13333333,0,0,-0.13333333,0,1206.1333)" />
      </g>
    </g>
  </g>
</svg>
