<?xml version="1.0" encoding="UTF-8" standalone="no"?>
<!-- Created with Inkscape (http://www.inkscape.org/) -->

<svg
   version="1.1"
   id="svg1"
   width="186.7672"
   height="186.77319"
   viewBox="0 0 186.7672 186.77319"
   sodipodi:docname="logotipo calado.eps"
   xmlns:inkscape="http://www.inkscape.org/namespaces/inkscape"
   xmlns:sodipodi="http://sodipodi.sourceforge.net/DTD/sodipodi-0.dtd"
   xmlns="http://www.w3.org/2000/svg"
   xmlns:svg="http://www.w3.org/2000/svg">
  <defs
     id="defs1" />
  <sodipodi:namedview
     id="namedview1"
     pagecolor="#ffffff"
     bordercolor="#000000"
     borderopacity="0.25"
     inkscape:showpageshadow="2"
     inkscape:pageopacity="0.0"
     inkscape:pagecheckerboard="0"
     inkscape:deskcolor="#d1d1d1" />
  <g
     id="g1"
     inkscape:groupmode="layer"
     inkscape:label="1"
     transform="translate(-80.602134,-954.62)">
    <g
       id="group-R5">
      <path
         id="path19"
         d="m 1728.42,864.832 c 8.75,8.809 15.61,19.59 19.87,31.738 l 30.22,94.2 h -47.06 c -37.23,-56.5 -126.65,-47.938 -200.7,-1.879 -116.63,72.659 -197.48,117.299 -254.71,120.639 -8.04,0.49 -15.6,0.15 -22.75,-1.05 -0.04,-0.01 -0.08,-0.02 -0.13,-0.02 8.95,-89.45 26.54,-144.878 36.46,-170.39 4.36,-11.238 7.24,-16.699 7.24,-16.699 l -10.73,2.168 c 0,0 -3.34,4 -8.84,12.422 -13.83,21.219 -41.26,70.519 -63.03,154.759 -16.45,-13.17 -27.99,-32.16 -31.53,-53.86 -0.68,-6.18 -0.99,-12.46 -0.99,-18.65 l 23.79,-55.519 30.9,-72.062 c -10.99,4.133 -24.94,9.922 -40.98,16.57 -109.8,45.653 -332.524,138.081 -501.352,59.289 -24.625,68.552 -38.118,142.462 -38.118,219.512 0,358.25 290.59,648.72 648.87,648.72 358.3,0 648.61,-290.47 648.61,-648.72 0,-58.49 -12.13,-143.04 -22.37,-169.08 -35.47,-80.451 -109.2,-128.201 -202.67,-152.088 z m 40.06,-125.18 c -70.43,-60.742 -170.72,-47.582 -239.23,-31.23 -104.89,25.328 -272.4,120.207 -316.32,149.168 1.07,1.281 3.84,5.332 4.91,6.461 81.87,-29.34 411.99,-112.281 626.48,-3.231 1.55,-1.672 2.97,-3.519 4.53,-5.121 1.46,-1.558 5.47,-5.179 7.12,-6.82 -22.86,-37.277 -60.24,-81.867 -87.49,-109.227 z M 1550.65,595.27 c -10.42,-3.84 -88.73,-28.75 -149.56,-11.899 -11.66,3.41 -22.77,7.07 -34.22,11.258 -83.25,30.781 -160.11,81.781 -232.75,138.41 -91.54,71.43 -158.057,163.961 -281.327,221.871 0.527,1.192 1.457,3.738 1.812,6.25 68.364,-8.031 153.935,-16.48 266.575,-85.512 43.43,-26.628 221.88,-131.808 245.69,-143.496 48.32,-23.273 98.15,-42.742 149.52,-57.961 28.8,-8.312 58,-15.312 88.05,-20.179 0,0 23.96,-2.949 31.2,-3.66 l 4.64,-10.872 C 1621.9,628 1573.08,603.23 1550.65,595.27 Z M 1324.37,547.652 C 1004.1,526.969 765.141,773.48 715.066,924.871 c 1.602,1.238 5.149,3.348 5.149,3.348 77.359,21.902 152.379,-17.469 237.48,-89.039 61.575,-51.739 184.315,-193.508 334.755,-261.571 14.16,-7.429 19.94,-10.39 35.62,-15.847 -0.37,-1.711 -2.78,-10.481 -3.7,-14.11 z M 1304.85,1886.35 C 918,1886.35 604.516,1572.75 604.516,1186 604.516,799.129 918,485.551 1304.85,485.551 c 386.87,0 700.42,313.578 700.42,700.449 0,386.75 -313.55,700.35 -700.42,700.35"
         style="fill:#ffffff;fill-opacity:1;fill-rule:nonzero;stroke:none"
         transform="matrix(0.13333333,0,0,-0.13333333,0,1206.1333)"
         inkscape:export-filename="path19.svg"
         inkscape:export-xdpi="96"
         inkscape:export-ydpi="96" />
      <path
         id="path20"
         d="m 1652.69,1261.87 c 8.08,52.98 25.48,102.89 50.49,148.02 -31.08,18.42 -64.88,32.71 -100.66,42.13 -32.27,8.5 -66.16,13.02 -101.08,13.02 -68.98,0 -133.83,-17.62 -190.31,-48.62 -10.26,-18.84 -19.03,-38.6 -26.19,-59.14 l -0.18,-0.15 -0.22,-0.69 c -23.2,-6.35 -45.31,-15.35 -65.98,-26.64 -22.63,-34.47 -35.81,-75.72 -35.81,-120.05 0,-29.65 5.89,-57.92 16.57,-83.7 3.85,-9.34 8.36,-18.36 13.45,-27 l -5.73,35.15 c 16.28,11.21 36.87,16.63 60.84,16.63 62.84,0 148.96,-37.23 241.42,-104.56 -0.77,1.98 -1.52,3.97 -2.23,5.94 -14.68,40.3 -22.68,83.8 -22.68,129.18 0,52.44 10.69,102.38 30.02,147.75 -30.69,16.95 -64.57,28.81 -100.53,34.44 l 1.5,4.82 c 43.58,-3.46 85.14,-14.11 123.47,-30.77 -12.59,-37.05 -19.42,-76.76 -19.42,-118.06 0,-45.86 8.42,-89.74 23.78,-130.2 56.91,-21.73 107.37,-56.5 147.73,-100.671 l 5.28,2.371 c -31.13,60.86 -48.68,129.81 -48.68,202.86 0,23.11 1.75,45.79 5.15,67.94"
         style="fill:#ffffff;fill-opacity:1;fill-rule:nonzero;stroke:none"
         transform="matrix(0.13333333,0,0,-0.13333333,0,1206.1333)" />
      <path
         id="path21"
         d="m 1004.01,1399.83 c 4.18,-44.84 11.74,-121.56 11.74,-121.56 h 13.47 c 0,0 7.75,76.72 12.03,121.56 2.51,27.18 13.3,39.11 32.63,43.82 15.91,3.96 65.15,11.07 65.15,11.07 v 12.61 c 0,0 -51.35,5.49 -67.89,11.07 -12.32,4.21 -25.06,8.92 -31.49,31.42 -4.94,17.29 -10.85,71.14 -10.85,71.14 h -6.19 -6.4 c 0,0 -5.95,-53.85 -10.92,-71.14 -6.173,-22.5 -18.962,-27.21 -31.388,-31.42 -16.535,-5.58 -67.918,-11.07 -67.918,-11.07 v -12.61 c 0,0 49.137,-7.11 65.145,-11.07 19.273,-4.71 30.131,-16.64 32.881,-43.82"
         style="fill:#ffffff;fill-opacity:1;fill-rule:nonzero;stroke:none"
         transform="matrix(0.13333333,0,0,-0.13333333,0,1206.1333)" />
      <path
         id="path22"
         d="m 1531.26,1527.97 -11.04,-48.47 c -32.34,27.15 -73.2,44.5 -117.98,47.44 l -1.81,7.14 c 18.12,8.09 38.21,12.58 59.33,12.58 25.99,0 50.37,-6.79 71.5,-18.69"
         style="fill:#ffffff;fill-opacity:1;fill-rule:nonzero;stroke:none"
         transform="matrix(0.13333333,0,0,-0.13333333,0,1206.1333)" />
    </g>
  </g>
</svg>
