<svg id="svg" version="1.1" xmlns="http://www.w3.org/2000/svg" xmlns:xlink="http://www.w3.org/1999/xlink" width="400" height="191.2739965095986" viewBox="0, 0, 400,191.2739965095986"><g id="svgg"><path id="path0" d="M93.501 44.452 C 93.718 44.493,94.032 44.492,94.199 44.448 C 94.366 44.404,94.188 44.370,93.805 44.372 C 93.421 44.374,93.284 44.410,93.501 44.452 M97.164 44.451 C 97.380 44.493,97.733 44.493,97.949 44.451 C 98.165 44.410,97.989 44.376,97.557 44.376 C 97.125 44.376,96.948 44.410,97.164 44.451 M111.867 46.983 C 111.915 47.030,112.228 47.161,112.561 47.274 C 112.895 47.387,113.092 47.404,112.998 47.312 C 112.904 47.220,112.592 47.089,112.304 47.021 C 112.016 46.953,111.819 46.935,111.867 46.983 M127.470 55.472 C 127.840 55.888,127.923 55.926,127.923 55.678 C 127.923 55.585,127.747 55.417,127.531 55.304 C 127.140 55.099,127.140 55.100,127.470 55.472 M62.998 55.938 C 62.661 56.344,62.902 56.421,63.263 56.022 C 63.437 55.829,63.498 55.672,63.399 55.672 C 63.300 55.672,63.120 55.792,62.998 55.938 M128.360 56.195 C 128.533 56.387,128.754 56.545,128.850 56.545 C 128.945 56.545,128.843 56.387,128.621 56.195 C 128.400 56.003,128.179 55.846,128.131 55.846 C 128.083 55.846,128.186 56.003,128.360 56.195 M61.953 56.895 C 61.731 57.087,61.588 57.283,61.635 57.330 C 61.682 57.377,61.905 57.220,62.130 56.980 C 62.621 56.457,62.516 56.406,61.953 56.895 M129.743 57.393 C 130.024 57.692,130.290 57.900,130.335 57.856 C 130.453 57.737,130.017 57.253,129.596 57.036 C 129.320 56.894,129.356 56.980,129.743 57.393 M59.901 58.731 C 59.315 59.261,58.582 60.027,58.272 60.432 C 57.951 60.853,58.434 60.458,59.395 59.515 C 60.323 58.605,61.082 57.839,61.082 57.813 C 61.082 57.687,60.887 57.839,59.901 58.731 M65.341 59.013 C 65.011 59.386,65.011 59.387,65.401 59.182 C 65.617 59.068,65.794 58.900,65.794 58.807 C 65.794 58.559,65.711 58.597,65.341 59.013 M131.850 59.337 C 132.225 59.721,132.571 60.035,132.619 60.035 C 132.667 60.035,132.399 59.721,132.024 59.337 C 131.650 58.953,131.304 58.639,131.256 58.639 C 131.208 58.639,131.475 58.953,131.850 59.337 M126.003 59.142 C 126.003 59.227,126.219 59.435,126.483 59.604 L 126.963 59.911 126.540 59.449 C 126.083 58.950,126.003 58.905,126.003 59.142 M64.037 60.154 L 63.438 60.791 64.000 60.405 C 64.583 60.004,64.834 59.715,64.709 59.590 C 64.669 59.549,64.366 59.803,64.037 60.154 M127.225 60.078 C 127.225 60.243,131.079 64.092,131.162 64.009 C 131.198 63.973,130.327 63.046,129.226 61.949 C 128.126 60.851,127.225 60.009,127.225 60.078 M133.847 61.496 C 134.178 61.844,134.483 62.129,134.524 62.129 C 134.692 62.129,133.722 61.008,133.493 60.938 C 133.357 60.897,133.517 61.148,133.847 61.496 M62.042 61.955 C 61.670 62.335,61.406 62.686,61.454 62.734 C 61.502 62.782,61.845 62.510,62.216 62.129 C 62.588 61.749,62.853 61.398,62.805 61.350 C 62.757 61.302,62.413 61.574,62.042 61.955 M57.035 61.735 C 56.530 62.323,56.501 62.562,56.992 62.091 C 57.263 61.830,57.444 61.574,57.392 61.523 C 57.341 61.471,57.180 61.567,57.035 61.735 M134.991 62.827 C 135.165 63.019,135.337 63.176,135.374 63.176 C 135.410 63.176,135.356 63.019,135.253 62.827 C 135.150 62.635,134.978 62.478,134.871 62.478 C 134.763 62.478,134.818 62.635,134.991 62.827 M55.827 63.220 C 55.622 63.610,55.623 63.611,55.996 63.280 C 56.412 62.911,56.450 62.827,56.202 62.827 C 56.109 62.827,55.940 63.004,55.827 63.220 M60.155 64.015 C 59.696 64.493,59.521 64.869,59.852 64.665 C 60.040 64.548,60.793 63.525,60.690 63.525 C 60.654 63.525,60.413 63.746,60.155 64.015 M131.763 64.921 C 131.865 65.113,132.037 65.271,132.145 65.271 C 132.252 65.271,132.198 65.113,132.024 64.921 C 131.851 64.729,131.679 64.572,131.642 64.572 C 131.606 64.572,131.660 64.729,131.763 64.921 M58.988 65.358 C 58.864 65.506,58.803 65.667,58.851 65.715 C 58.899 65.763,59.039 65.681,59.162 65.532 C 59.286 65.384,59.347 65.223,59.299 65.175 C 59.251 65.127,59.111 65.209,58.988 65.358 M168.629 95.157 L 168.586 119.721 175.262 119.679 L 181.937 119.638 175.350 119.590 L 168.762 119.542 168.717 95.068 L 168.672 70.593 168.629 95.157 M213.521 85.602 C 213.521 93.857,213.543 97.208,213.569 93.050 C 213.595 88.891,213.595 82.137,213.569 78.041 C 213.543 73.945,213.521 77.347,213.521 85.602 M315.401 95.157 L 315.358 119.721 322.033 119.679 L 328.709 119.638 322.121 119.590 L 315.533 119.542 315.489 95.068 L 315.444 70.593 315.401 95.157 M76.789 73.070 C 76.789 73.166,76.946 73.386,77.138 73.560 C 77.330 73.734,77.487 73.798,77.487 73.702 C 77.487 73.606,77.330 73.385,77.138 73.211 C 76.946 73.037,76.789 72.974,76.789 73.070 M72.775 73.386 C 72.654 73.532,72.635 73.647,72.732 73.647 C 72.828 73.647,73.004 73.530,73.124 73.386 C 73.245 73.240,73.264 73.124,73.167 73.124 C 73.071 73.124,72.894 73.242,72.775 73.386 M202.966 75.130 C 203.191 75.370,203.414 75.527,203.461 75.480 C 203.577 75.364,202.958 74.695,202.735 74.695 C 202.637 74.695,202.741 74.891,202.966 75.130 M349.651 75.044 C 349.825 75.236,350.045 75.393,350.141 75.393 C 350.237 75.393,350.174 75.236,350.000 75.044 C 349.826 74.852,349.606 74.695,349.510 74.695 C 349.414 74.695,349.477 74.852,349.651 75.044 M272.329 75.466 C 272.142 75.602,272.036 75.759,272.093 75.816 C 272.149 75.872,272.338 75.761,272.512 75.568 C 272.883 75.159,272.807 75.116,272.329 75.466 M307.226 75.716 C 307.409 75.922,307.629 76.091,307.716 76.091 C 307.962 76.091,307.701 75.765,307.276 75.543 C 306.896 75.343,306.896 75.344,307.226 75.716 M270.508 77.077 C 269.612 77.907,268.945 78.709,269.152 78.709 C 269.182 78.709,269.791 78.120,270.506 77.400 C 272.034 75.861,272.036 75.662,270.508 77.077 M100.841 76.584 C 100.392 76.745,99.967 76.935,99.897 77.006 C 99.722 77.184,101.442 76.605,101.649 76.417 C 101.859 76.225,101.828 76.232,100.841 76.584 M204.699 76.852 C 204.932 77.105,205.157 77.312,205.200 77.312 C 205.372 77.312,204.753 76.541,204.523 76.469 C 204.387 76.427,204.466 76.599,204.699 76.852 M308.726 77.051 C 309.052 77.387,309.357 77.661,309.405 77.661 C 309.453 77.661,309.226 77.387,308.901 77.051 C 308.575 76.715,308.269 76.440,308.221 76.440 C 308.173 76.440,308.400 76.715,308.726 77.051 M351.483 76.875 C 351.708 77.115,351.930 77.273,351.978 77.226 C 352.093 77.110,351.474 76.440,351.251 76.440 C 351.154 76.440,351.258 76.636,351.483 76.875 M308.639 81.152 C 307.779 82.016,307.155 82.723,307.252 82.723 C 307.349 82.723,307.859 82.271,308.386 81.719 C 310.818 79.170,310.986 78.793,308.639 81.152 M193.368 83.877 C 193.368 84.103,194.383 85.081,194.498 84.967 C 194.546 84.919,194.311 84.615,193.976 84.291 C 193.642 83.966,193.368 83.780,193.368 83.877 M340.276 84.033 C 340.496 84.461,341.157 85.079,341.272 84.964 C 341.318 84.918,341.072 84.611,340.726 84.281 C 340.338 83.912,340.165 83.817,340.276 84.033 M281.048 84.319 C 280.717 84.691,280.718 84.692,281.108 84.487 C 281.324 84.374,281.501 84.205,281.501 84.113 C 281.501 83.865,281.417 83.903,281.048 84.319 M304.450 85.515 C 303.590 86.379,302.966 87.086,303.063 87.086 C 303.160 87.086,303.671 86.634,304.197 86.082 C 306.630 83.533,306.798 83.156,304.450 85.515 M299.476 84.636 C 299.476 84.729,299.653 84.897,299.869 85.011 C 300.260 85.215,300.260 85.215,299.929 84.842 C 299.560 84.426,299.476 84.388,299.476 84.636 M279.927 85.257 C 279.589 85.664,279.830 85.740,280.191 85.341 C 280.365 85.149,280.427 84.991,280.328 84.991 C 280.229 84.991,280.048 85.111,279.927 85.257 M300.525 85.434 C 300.526 85.640,302.256 87.331,302.360 87.227 C 302.401 87.186,302.005 86.728,301.479 86.209 C 300.954 85.690,300.524 85.341,300.525 85.434 M87.464 88.822 C 87.362 89.115,87.315 89.354,87.361 89.354 C 87.479 89.354,87.808 88.448,87.721 88.361 C 87.682 88.322,87.566 88.529,87.464 88.822 M340.576 91.449 C 340.402 91.640,340.339 91.798,340.435 91.798 C 340.531 91.798,340.751 91.640,340.925 91.449 C 341.099 91.257,341.162 91.099,341.066 91.099 C 340.970 91.099,340.750 91.257,340.576 91.449 M111.405 93.194 C 111.405 94.010,111.435 94.343,111.472 93.935 C 111.508 93.527,111.508 92.860,111.472 92.452 C 111.435 92.044,111.405 92.378,111.405 93.194 M339.542 92.238 C 339.357 92.378,339.240 92.527,339.282 92.569 C 339.325 92.612,339.555 92.496,339.793 92.313 C 340.032 92.130,340.148 91.981,340.052 91.982 C 339.956 91.982,339.727 92.098,339.542 92.238 M262.868 93.717 C 262.868 94.053,262.904 94.191,262.948 94.023 C 262.991 93.855,262.991 93.580,262.948 93.412 C 262.904 93.244,262.868 93.381,262.868 93.717 M354.488 93.831 C 354.380 94.182,354.361 94.398,354.446 94.311 C 354.617 94.136,354.882 93.194,354.760 93.194 C 354.718 93.194,354.595 93.481,354.488 93.831 M143.165 95.462 C 143.165 96.182,143.196 96.477,143.234 96.117 C 143.271 95.757,143.271 95.168,143.234 94.808 C 143.196 94.448,143.165 94.743,143.165 95.462 M108.783 95.899 C 108.784 96.571,108.816 96.824,108.853 96.462 C 108.891 96.100,108.891 95.550,108.852 95.240 C 108.813 94.931,108.782 95.227,108.783 95.899 M262.868 96.684 C 262.868 97.020,262.904 97.158,262.948 96.990 C 262.991 96.822,262.991 96.547,262.948 96.379 C 262.904 96.211,262.868 96.348,262.868 96.684 M92.627 98.203 C 92.842 98.245,93.196 98.245,93.412 98.203 C 93.628 98.162,93.451 98.128,93.019 98.128 C 92.587 98.128,92.411 98.162,92.627 98.203 M90.009 98.550 C 89.841 98.594,89.703 98.705,89.703 98.797 C 89.703 98.894,89.870 98.879,90.096 98.761 C 90.750 98.420,90.726 98.362,90.009 98.550 M88.598 99.244 C 88.440 99.401,88.450 99.960,88.613 100.060 C 88.685 100.104,88.752 99.912,88.762 99.634 C 88.782 99.088,88.774 99.068,88.598 99.244 M203.839 99.913 C 203.416 100.345,203.108 100.698,203.156 100.698 C 203.204 100.698,203.590 100.345,204.014 99.913 C 204.438 99.481,204.745 99.127,204.697 99.127 C 204.649 99.127,204.263 99.481,203.839 99.913 M350.604 99.947 C 349.909 100.679,349.890 100.720,350.423 100.328 C 350.951 99.940,351.648 99.127,351.454 99.127 C 351.414 99.127,351.031 99.496,350.604 99.947 M96.510 101.782 C 96.558 101.829,96.870 101.960,97.204 102.073 C 97.537 102.186,97.734 102.203,97.640 102.111 C 97.546 102.020,97.234 101.889,96.946 101.820 C 96.658 101.752,96.462 101.735,96.510 101.782 M88.448 102.923 C 87.931 103.525,87.914 103.743,88.420 103.273 C 88.833 102.889,88.980 102.837,89.156 103.011 C 89.331 103.185,89.352 103.168,89.259 102.923 C 89.195 102.755,89.045 102.618,88.926 102.618 C 88.808 102.618,88.592 102.755,88.448 102.923 M301.962 104.128 C 300.311 105.872,300.337 106.022,302.004 104.366 L 303.309 103.070 303.873 103.585 C 304.424 104.090,304.234 103.702,303.634 103.098 C 303.242 102.703,303.407 102.602,301.962 104.128 M280.013 105.231 C 280.580 105.804,281.076 106.242,281.115 106.204 C 281.203 106.115,279.286 104.188,279.110 104.188 C 279.039 104.188,279.446 104.658,280.013 105.231 M304.887 104.650 C 304.887 104.741,305.213 105.126,305.613 105.506 C 306.242 106.103,306.291 106.125,305.981 105.672 C 305.546 105.037,304.887 104.421,304.887 104.650 M184.435 105.017 C 185.905 105.046,188.261 105.046,189.670 105.017 C 191.080 104.988,189.878 104.964,186.998 104.964 C 184.119 104.964,182.965 104.988,184.435 105.017 M331.206 105.017 C 332.676 105.046,335.032 105.046,336.442 105.017 C 337.852 104.988,336.649 104.964,333.770 104.964 C 330.890 104.964,329.737 104.988,331.206 105.017 M110.022 105.564 C 110.074 105.648,110.295 105.762,110.512 105.817 C 110.894 105.913,110.896 105.907,110.569 105.663 C 110.194 105.383,109.874 105.325,110.022 105.564 M242.498 105.885 L 242.192 106.370 242.596 105.982 C 242.818 105.769,242.956 105.550,242.902 105.497 C 242.849 105.443,242.667 105.618,242.498 105.885 M229.494 106.545 C 229.918 106.976,230.331 107.330,230.412 107.330 C 230.494 107.330,230.229 106.976,229.824 106.545 C 229.419 106.113,229.006 105.759,228.906 105.759 C 228.805 105.759,229.070 106.113,229.494 106.545 M256.931 106.571 C 256.823 106.922,256.805 107.138,256.889 107.051 C 257.060 106.876,257.325 105.934,257.204 105.934 C 257.161 105.934,257.039 106.221,256.931 106.571 M214.514 106.641 C 214.617 106.934,214.732 107.141,214.772 107.101 C 214.858 107.015,214.529 106.108,214.411 106.108 C 214.366 106.108,214.412 106.348,214.514 106.641 M307.243 107.330 C 307.956 108.060,308.233 108.243,307.839 107.723 C 307.325 107.044,306.910 106.632,306.740 106.632 C 306.642 106.632,306.868 106.946,307.243 107.330 M241.187 107.155 C 240.947 107.343,240.836 107.498,240.942 107.500 C 241.047 107.503,241.275 107.347,241.449 107.155 C 241.846 106.716,241.749 106.716,241.187 107.155 M120.768 107.149 C 120.768 107.242,120.945 107.410,121.161 107.524 C 121.551 107.729,121.551 107.728,121.221 107.355 C 120.851 106.939,120.768 106.901,120.768 107.149 M121.995 108.121 C 122.002 108.352,123.872 110.217,123.985 110.105 C 124.034 110.055,123.605 109.551,123.032 108.983 C 122.459 108.416,121.992 108.028,121.995 108.121 M308.551 108.664 C 308.551 108.755,308.878 109.140,309.278 109.520 C 309.907 110.117,309.956 110.139,309.646 109.686 C 309.211 109.050,308.551 108.435,308.551 108.664 M59.904 109.544 C 60.072 109.588,60.347 109.588,60.515 109.544 C 60.683 109.500,60.545 109.465,60.209 109.465 C 59.873 109.465,59.736 109.500,59.904 109.544 M63.569 109.544 C 63.737 109.588,64.012 109.588,64.180 109.544 C 64.348 109.500,64.210 109.465,63.874 109.465 C 63.538 109.465,63.401 109.500,63.569 109.544 M126.028 110.758 C 125.709 111.094,125.479 111.401,125.519 111.441 C 125.559 111.481,125.855 111.241,126.178 110.908 C 126.501 110.574,126.730 110.267,126.687 110.224 C 126.645 110.182,126.348 110.422,126.028 110.758 M310.559 110.996 C 310.734 111.188,310.914 111.308,310.960 111.262 C 311.078 111.145,310.642 110.646,310.423 110.646 C 310.324 110.646,310.385 110.803,310.559 110.996 M268.586 111.212 C 268.586 111.402,269.619 112.463,269.713 112.369 C 269.763 112.320,269.529 112.015,269.195 111.690 C 268.860 111.366,268.586 111.151,268.586 111.212 M76.963 111.968 C 76.963 112.086,77.870 112.415,77.956 112.329 C 77.996 112.289,77.789 112.173,77.496 112.071 C 77.203 111.969,76.963 111.923,76.963 111.968 M93.967 112.304 C 94.035 112.592,94.166 112.904,94.258 112.998 C 94.350 113.092,94.333 112.895,94.220 112.561 C 93.955 111.780,93.807 111.628,93.967 112.304 M137.822 113.115 C 137.171 113.772,136.702 114.311,136.780 114.311 C 136.966 114.311,139.183 112.071,139.083 111.985 C 139.040 111.949,138.473 112.457,137.822 113.115 M309.152 113.295 C 308.564 113.902,308.342 114.209,308.639 114.004 C 309.302 113.547,310.387 112.423,310.275 112.311 C 310.228 112.264,309.723 112.707,309.152 113.295 M79.232 112.777 C 79.280 112.824,79.592 112.955,79.926 113.068 C 80.260 113.181,80.456 113.198,80.363 113.106 C 80.269 113.014,79.956 112.883,79.668 112.815 C 79.380 112.747,79.184 112.730,79.232 112.777 M120.462 112.860 C 120.630 112.904,120.905 112.904,121.073 112.860 C 121.241 112.816,121.104 112.780,120.768 112.780 C 120.432 112.780,120.295 112.816,120.462 112.860 M253.085 113.318 C 252.649 113.782,252.571 114.116,252.976 113.779 C 253.241 113.559,253.652 112.914,253.527 112.914 C 253.492 112.914,253.293 113.096,253.085 113.318 M218.325 113.364 C 218.325 113.544,220.320 115.561,220.679 115.743 C 220.872 115.841,220.443 115.323,219.725 114.592 C 218.416 113.259,218.325 113.179,218.325 113.364 M128.961 114.073 C 128.865 114.326,128.818 114.566,128.858 114.606 C 128.898 114.645,129.014 114.438,129.116 114.145 C 129.343 113.494,129.206 113.430,128.961 114.073 M271.132 113.978 C 271.313 114.179,271.620 114.424,271.813 114.524 C 272.064 114.653,272.017 114.549,271.651 114.159 C 271.089 113.559,270.598 113.389,271.132 113.978 M307.226 115.034 C 306.896 115.406,306.896 115.407,307.276 115.208 C 307.701 114.985,307.962 114.660,307.716 114.660 C 307.629 114.660,307.409 114.828,307.226 115.034 M272.426 115.003 C 272.426 115.095,272.603 115.264,272.818 115.377 C 273.209 115.582,273.209 115.581,272.879 115.209 C 272.509 114.793,272.426 114.755,272.426 115.003 M250.597 115.818 C 250.194 116.256,250.192 116.268,250.557 116.079 C 250.962 115.868,251.220 115.559,251.094 115.434 C 251.053 115.393,250.829 115.566,250.597 115.818 M89.878 116.912 C 89.878 117.057,90.594 117.318,90.700 117.212 C 90.729 117.183,90.555 117.070,90.315 116.961 C 90.075 116.851,89.878 116.829,89.878 116.912 M70.751 117.776 C 71.121 118.192,71.204 118.230,71.204 117.982 C 71.204 117.889,71.027 117.721,70.812 117.607 C 70.421 117.402,70.421 117.403,70.751 117.776 M128.883 118.406 C 128.209 118.714,128.523 118.719,129.319 118.412 C 129.655 118.282,129.812 118.174,129.668 118.171 C 129.524 118.168,129.171 118.274,128.883 118.406 M71.816 118.675 C 71.990 118.867,72.171 118.987,72.217 118.941 C 72.334 118.823,71.899 118.325,71.679 118.325 C 71.580 118.325,71.642 118.482,71.816 118.675 M73.026 119.684 C 73.308 119.992,73.617 120.244,73.713 120.244 C 73.889 120.244,73.500 119.850,72.860 119.378 C 72.669 119.238,72.744 119.376,73.026 119.684 M134.904 119.575 C 134.904 119.687,134.957 119.725,135.023 119.660 C 135.088 119.595,135.383 119.758,135.677 120.024 L 136.213 120.506 135.700 119.939 C 135.167 119.348,134.904 119.228,134.904 119.575 M228.272 119.954 C 228.272 119.999,228.526 120.124,228.835 120.232 C 229.145 120.340,229.322 120.356,229.228 120.269 C 229.029 120.083,228.272 119.833,228.272 119.954 M69.459 120.413 C 69.459 120.505,69.636 120.674,69.852 120.787 C 70.242 120.992,70.243 120.991,69.912 120.619 C 69.543 120.203,69.459 120.165,69.459 120.413 M75.120 121.609 C 75.595 122.102,76.020 122.467,76.066 122.421 C 76.180 122.307,75.425 121.514,74.782 121.072 C 74.418 120.823,74.522 120.987,75.120 121.609 M235.122 121.070 C 235.482 121.107,236.071 121.107,236.431 121.070 C 236.791 121.032,236.497 121.001,235.777 121.001 C 235.057 121.001,234.762 121.032,235.122 121.070 M289.315 121.070 C 289.726 121.107,290.354 121.107,290.711 121.069 C 291.069 121.032,290.733 121.002,289.965 121.002 C 289.197 121.003,288.905 121.034,289.315 121.070 M70.506 121.280 C 70.506 121.369,70.761 121.618,71.073 121.833 L 71.640 122.224 71.128 121.670 C 70.575 121.074,70.506 121.030,70.506 121.280 M72.251 122.824 C 72.251 122.967,73.631 124.318,74.695 125.218 C 75.031 125.502,74.640 125.049,73.826 124.211 C 72.295 122.635,72.251 122.596,72.251 122.824 M77.913 124.223 C 78.484 124.813,78.986 125.261,79.029 125.218 C 79.149 125.098,78.747 124.670,77.766 123.873 L 76.876 123.149 77.913 124.223 M111.387 123.331 C 111.555 123.375,111.830 123.375,111.998 123.331 C 112.166 123.288,112.029 123.252,111.693 123.252 C 111.357 123.252,111.219 123.288,111.387 123.331 M58.028 124.433 C 58.202 124.625,58.374 124.782,58.410 124.782 C 58.447 124.782,58.392 124.625,58.290 124.433 C 58.187 124.241,58.015 124.084,57.907 124.084 C 57.800 124.084,57.854 124.241,58.028 124.433 M58.988 125.567 C 59.213 125.807,59.425 126.003,59.459 126.003 C 59.492 126.003,59.391 125.807,59.234 125.567 C 59.076 125.327,58.864 125.131,58.763 125.131 C 58.661 125.131,58.762 125.327,58.988 125.567 M131.581 126.037 L 131.187 126.614 131.684 126.140 C 131.957 125.879,132.134 125.619,132.078 125.562 C 132.021 125.506,131.798 125.720,131.581 126.037 M80.093 126.234 C 80.422 126.584,80.725 126.838,80.765 126.798 C 80.890 126.672,80.639 126.383,80.056 125.983 L 79.494 125.597 80.093 126.234 M61.513 128.266 C 62.562 129.319,63.455 130.146,63.497 130.104 C 63.589 130.012,59.918 126.353,59.734 126.353 C 59.663 126.353,60.463 127.214,61.513 128.266 M76.265 126.667 C 76.265 126.813,77.076 127.596,77.836 128.185 C 78.076 128.371,77.843 128.074,77.318 127.525 C 76.324 126.485,76.265 126.437,76.265 126.667 M81.414 127.400 C 81.587 127.592,81.808 127.749,81.904 127.749 C 81.999 127.749,81.897 127.592,81.675 127.400 C 81.454 127.208,81.234 127.051,81.185 127.051 C 81.137 127.051,81.240 127.208,81.414 127.400 M129.950 127.749 C 129.383 128.378,129.221 128.621,129.370 128.621 C 129.398 128.621,129.768 128.268,130.192 127.836 C 130.616 127.404,130.877 127.051,130.772 127.051 C 130.667 127.051,130.298 127.365,129.950 127.749 M56.021 128.272 C 56.124 128.464,56.296 128.621,56.403 128.621 C 56.511 128.621,56.456 128.464,56.283 128.272 C 56.109 128.080,55.937 127.923,55.900 127.923 C 55.864 127.923,55.918 128.080,56.021 128.272 M82.444 128.247 C 82.813 128.663,82.897 128.701,82.897 128.453 C 82.897 128.360,82.720 128.192,82.504 128.078 C 82.114 127.874,82.113 127.874,82.444 128.247 M134.817 128.621 C 134.643 128.813,134.589 128.970,134.696 128.970 C 134.804 128.970,134.976 128.813,135.079 128.621 C 135.181 128.429,135.235 128.272,135.199 128.272 C 135.162 128.272,134.990 128.429,134.817 128.621 M78.712 128.927 C 78.715 129.081,79.380 129.717,79.756 129.925 C 79.900 130.005,79.747 129.783,79.416 129.433 C 78.789 128.769,78.707 128.710,78.712 128.927 M56.861 129.246 C 57.079 129.668,57.563 130.104,57.681 129.986 C 57.726 129.941,57.518 129.675,57.218 129.394 C 56.805 129.007,56.719 128.971,56.861 129.246 M133.542 130.069 C 133.235 130.386,132.985 130.720,132.985 130.811 C 132.986 130.903,133.260 130.678,133.596 130.313 C 134.153 129.707,134.298 129.494,134.153 129.494 C 134.124 129.494,133.849 129.753,133.542 130.069 M64.210 130.778 C 64.668 131.277,64.747 131.322,64.747 131.085 C 64.747 131.000,64.531 130.792,64.267 130.623 L 63.787 130.316 64.210 130.778 M80.462 130.638 C 80.586 130.787,80.850 130.994,81.050 131.098 C 81.374 131.266,81.368 131.237,80.991 130.826 C 80.544 130.341,80.077 130.174,80.462 130.638 M58.705 131.239 C 59.052 131.623,59.670 132.227,60.078 132.582 C 60.486 132.936,60.233 132.622,59.516 131.883 C 58.124 130.451,57.661 130.083,58.705 131.239 M65.341 131.737 C 65.711 132.153,65.794 132.191,65.794 131.943 C 65.794 131.851,65.617 131.682,65.401 131.569 C 65.011 131.364,65.011 131.365,65.341 131.737 M81.675 131.582 C 81.675 131.675,81.852 131.843,82.068 131.956 C 82.459 132.161,82.459 132.160,82.128 131.788 C 81.759 131.372,81.675 131.334,81.675 131.582 M130.093 133.532 C 129.716 133.926,129.564 134.168,129.756 134.069 C 130.191 133.844,130.979 133.015,130.865 132.901 C 130.818 132.854,130.471 133.138,130.093 133.532 M61.257 133.655 C 61.257 133.817,61.718 134.247,62.129 134.468 C 62.273 134.546,62.160 134.361,61.878 134.058 C 61.332 133.472,61.257 133.423,61.257 133.655 M128.621 134.817 C 128.396 135.057,128.252 135.253,128.302 135.253 C 128.476 135.253,129.200 134.552,129.115 134.467 C 129.068 134.420,128.846 134.578,128.621 134.817 M62.653 134.856 C 62.653 135.075,63.152 135.510,63.269 135.393 C 63.315 135.347,63.195 135.167,63.003 134.992 C 62.810 134.818,62.653 134.756,62.653 134.856 M78.974 144.136 C 79.068 144.228,79.380 144.359,79.668 144.428 C 80.344 144.588,80.192 144.439,79.411 144.175 C 79.077 144.062,78.881 144.045,78.974 144.136 M94.814 146.901 C 95.370 146.935,96.234 146.935,96.734 146.900 C 97.235 146.865,96.780 146.836,95.724 146.837 C 94.668 146.837,94.259 146.866,94.814 146.901 " stroke="none" fill="#fcfcfc" fill-rule="evenodd"></path><path id="path1" d="" stroke="none" fill="#100fcfc" fill-rule="evenodd"></path><path id="path2" d="" stroke="none" fill="#100fcfc" fill-rule="evenodd"></path><path id="path3" d="" stroke="none" fill="#100fcfc" fill-rule="evenodd"></path><path id="path4" d="" stroke="none" fill="#100fcfc" fill-rule="evenodd"></path></g></svg>