<?xml version="1.0" encoding="UTF-8" standalone="no"?>
<!-- Created with Inkscape (http://www.inkscape.org/) -->

<svg
   version="1.1"
   id="svg1"
   width="563.48041"
   height="172.89877"
   viewBox="0 0 563.48041 172.89877"
   sodipodi:docname="logotipo calado.eps"
   xmlns:inkscape="http://www.inkscape.org/namespaces/inkscape"
   xmlns:sodipodi="http://sodipodi.sourceforge.net/DTD/sodipodi-0.dtd"
   xmlns="http://www.w3.org/2000/svg"
   xmlns:svg="http://www.w3.org/2000/svg">
  <defs
     id="defs1" />
  <sodipodi:namedview
     id="namedview1"
     pagecolor="#ffffff"
     bordercolor="#000000"
     borderopacity="0.25"
     inkscape:showpageshadow="2"
     inkscape:pageopacity="0.0"
     inkscape:pagecheckerboard="0"
     inkscape:deskcolor="#d1d1d1"
     inkscape:zoom="0.68068761"
     inkscape:cx="364.33747"
     inkscape:cy="616.28857"
     inkscape:window-width="1920"
     inkscape:window-height="1017"
     inkscape:window-x="-8"
     inkscape:window-y="-8"
     inkscape:window-maximized="1"
     inkscape:current-layer="group-R5" />
  <g
     id="g1"
     inkscape:groupmode="layer"
     inkscape:label="1"
     transform="translate(-96.906265,-477.32797)">
    <g
       id="group-R5">
      <path
         id="path3"
         d="m 1442.35,4217.82 c 11.52,-4.22 22.71,-7.91 34.45,-11.34 61.23,-16.96 140.05,8.11 150.54,11.98 22.57,8.01 71.72,32.94 90.21,44.5 l -4.66,10.94 c -7.28,0.71 -31.4,3.68 -31.4,3.68 -30.26,4.91 -59.64,11.95 -88.63,20.32 -51.71,15.31 -101.87,34.91 -150.51,58.34 -23.96,11.76 -203.59,117.64 -247.3,144.44 -113.38,69.48 -199.515,77.98 -268.323,86.07 -0.36,-2.53 -1.293,-5.1 -1.829,-6.29 124.082,-58.29 191.042,-151.43 283.182,-223.33 73.11,-57 150.47,-108.34 234.27,-139.31"
         style="fill:#122657;fill-opacity:1;fill-rule:nonzero;stroke:none"
         transform="matrix(0.13333333,0,0,-0.13333333,0,1206.1333)" />
      <path
         id="path4"
         d="m 791.449,4553.6 c 0,0 -3.566,-2.13 -5.179,-3.37 50.406,-152.39 290.93,-400.52 613.31,-379.7 0.92,3.65 3.35,12.47 3.71,14.2 -15.78,5.49 -21.6,8.48 -35.85,15.95 -151.42,68.5 -274.97,211.21 -336.95,263.29 -85.658,72.03 -161.17,111.67 -239.041,89.63"
         style="fill:#122657;fill-opacity:1;fill-rule:nonzero;stroke:none"
         transform="matrix(0.13333333,0,0,-0.13333333,0,1206.1333)" />
      <path
         id="path5"
         d="m 1927.5,4480.6 c -1.57,1.61 -3,3.47 -4.57,5.15 -215.89,-109.77 -548.18,-26.29 -630.59,3.25 -1.07,-1.13 -3.86,-5.22 -4.94,-6.5 44.22,-29.15 212.83,-124.65 318.4,-150.15 68.96,-16.46 169.91,-29.7 240.81,31.44 27.42,27.53 65.04,72.42 88.05,109.94 -1.66,1.65 -5.69,5.3 -7.16,6.87"
         style="fill:#122657;fill-opacity:1;fill-rule:nonzero;stroke:none"
         transform="matrix(0.13333333,0,0,-0.13333333,0,1206.1333)" />
      <path
         id="path6"
         d="m 1773.87,4616.86 -5.32,-2.39 c -40.62,44.46 -91.41,79.46 -148.7,101.33 -15.46,40.73 -23.94,84.89 -23.94,131.06 0,41.57 6.88,81.54 19.56,118.83 -38.59,16.77 -80.42,27.49 -124.28,30.97 l -1.52,-4.85 c 36.19,-5.66 70.3,-17.6 101.19,-34.67 -19.46,-45.66 -30.21,-95.94 -30.21,-148.72 0,-45.67 8.05,-89.46 22.83,-130.02 0.71,-1.99 1.47,-3.99 2.24,-5.99 -93.06,67.78 -179.75,105.26 -243.01,105.26 -24.13,0 -44.85,-5.46 -61.23,-16.74 l 5.76,-35.39 c -5.12,8.7 -9.66,17.78 -13.54,27.18 -10.75,25.95 -16.68,54.41 -16.68,84.25 0,44.62 13.27,86.14 36.05,120.84 20.81,11.37 43.06,20.42 66.41,26.81 l 0.22,0.69 0.18,0.16 c 7.21,20.67 16.04,40.56 26.37,59.53 56.85,31.2 122.12,48.94 191.55,48.94 35.16,0 69.27,-4.55 101.75,-13.11 36.01,-9.48 70.04,-23.86 101.32,-42.41 -25.17,-45.42 -42.68,-95.66 -50.82,-148.99 -3.42,-22.29 -5.18,-45.13 -5.18,-68.38 0,-73.54 17.66,-142.93 49,-204.19 z m -238.01,559.23 c 26.15,0 50.7,-6.83 71.96,-18.81 l -11.11,-48.79 c -32.55,27.33 -73.68,44.79 -118.76,47.76 l -1.82,7.19 c 18.25,8.13 38.46,12.65 59.73,12.65 z m -322.84,-92.54 c 0,0 -49.56,-7.16 -65.58,-11.14 -19.46,-4.74 -30.32,-16.75 -32.84,-44.11 -4.31,-45.14 -12.11,-122.35 -12.11,-122.35 h -13.56 c 0,0 -7.61,77.21 -11.82,122.35 -2.77,27.36 -13.69,39.37 -33.09,44.11 -16.12,3.98 -65.579,11.14 -65.579,11.14 v 12.69 c 0,0 51.719,5.53 68.369,11.14 12.51,4.24 25.38,8.98 31.59,31.63 5,17.4 10.99,71.61 10.99,71.61 h 6.44 6.24 c 0,0 5.94,-54.21 10.91,-71.61 6.48,-22.65 19.3,-27.39 31.7,-31.63 16.65,-5.61 68.34,-11.14 68.34,-11.14 z m 166.91,382.49 c -360.64,0 -653.133,-292.37 -653.133,-652.98 0,-77.55 13.578,-151.95 38.367,-220.94 169.934,79.3 394.126,-13.73 504.646,-59.68 16.14,-6.7 30.18,-12.53 41.24,-16.68 l -31.1,72.53 -23.94,55.88 c 0,6.24 0.31,12.55 1,18.78 3.56,21.83 15.18,40.95 31.73,54.21 21.92,-84.79 49.53,-134.42 63.45,-155.78 5.53,-8.47 8.9,-12.5 8.9,-12.5 l 10.79,-2.18 c 0,0 -2.89,5.49 -7.28,16.81 -9.99,25.68 -27.7,81.47 -36.7,171.51 0.05,0 0.09,0.01 0.13,0.01 7.19,1.22 14.8,1.56 22.9,1.06 57.6,-3.36 138.98,-48.29 256.38,-121.43 74.54,-46.36 164.55,-54.98 202.01,1.9 h 47.37 l -30.41,-94.83 c -4.29,-12.22 -11.19,-23.07 -20,-31.94 94.08,24.04 168.29,72.11 203.99,153.09 10.32,26.21 22.52,111.31 22.52,170.18 0,360.61 -292.21,652.98 -652.86,652.98"
         style="fill:#122657;fill-opacity:1;fill-rule:nonzero;stroke:none"
         transform="matrix(0.13333333,0,0,-0.13333333,0,1206.1333)" />
      <path
         id="path7"
         d="m 2565.44,4990.73 v -143.89 h 109.99 c 21.3,0 39.31,7.29 54.38,21.61 14.93,14.3 22.38,31.27 22.38,50.46 0,19.08 -7.45,35.88 -22.38,50.2 -15.07,14.4 -33.08,21.62 -54.38,21.62 z m 119.94,163.38 c 73.51,0 133.4,-22.2 179.81,-66.74 46.01,-44.47 69.31,-100.5 69.31,-168.25 0,-67.74 -23.3,-123.95 -69.68,-168.56 -46.18,-44.4 -106.13,-66.67 -179.44,-66.67 H 2565.44 V 4482.6 h -182.32 v 671.51 h 302.26"
         style="fill:#122657;fill-opacity:1;fill-rule:nonzero;stroke:none"
         transform="matrix(0.13333333,0,0,-0.13333333,0,1206.1333)" />
      <path
         id="path8"
         d="m 3394.53,4665.14 c 24.55,25.87 36.72,57.74 36.72,95.58 v 393.39 h 182.18 v -393.39 c 0,-84.42 -28.93,-154.89 -87.04,-211.96 -58.12,-56.86 -131.36,-85.46 -219.65,-85.46 -88.53,0 -161.52,28.6 -219.63,85.46 -58.11,57.07 -87.04,127.54 -87.04,211.96 v 393.39 h 181.99 v -393.39 c 0,-37.84 12.4,-69.71 36.89,-95.58 24.34,-25.93 53.7,-38.75 87.79,-38.75 33.94,0 63.3,12.82 87.79,38.75"
         style="fill:#122657;fill-opacity:1;fill-rule:nonzero;stroke:none"
         transform="matrix(0.13333333,0,0,-0.13333333,0,1206.1333)" />
      <path
         id="path9"
         d="m 3915.48,4681.09 c 36.52,-36.55 82.28,-54.7 137.21,-54.7 34.18,0 66.16,7.09 96.52,21.48 30.22,14.43 52.06,28.79 65.59,43.57 l 20.27,21.49 105.2,-115.26 c -2.36,-3.72 -6.1,-8.7 -11.04,-14.75 -4.8,-6.09 -16.04,-16.83 -33.58,-32.26 -17.69,-15.47 -36.88,-29.11 -57.29,-41.03 -20.42,-11.89 -47.4,-22.49 -80.98,-32.09 -33.59,-9.44 -68.39,-14.24 -104.69,-14.24 -104.27,0 -192.6,34.9 -265.32,104.8 -72.46,69.74 -108.69,153.17 -108.69,250.24 0,97.17 36.23,180.52 108.69,250.37 72.72,69.69 161.05,104.69 265.32,104.69 35.98,0 70.24,-4.72 102.68,-14 32.37,-9.49 59.25,-20.62 80.19,-33.76 21.14,-13.09 39.46,-26.31 55.23,-39.38 15.88,-13.17 27.05,-24.42 34.16,-33.73 l 10.66,-13.71 -110.58,-115.19 c -1.78,2.66 -4.18,5.81 -7.44,9.64 -3.13,3.94 -10.45,10.82 -21.48,20.59 -11.39,9.91 -22.91,18.75 -35.23,26.28 -12.03,7.62 -28.17,14.53 -47.98,20.62 -19.7,6.16 -39.95,9.16 -60.21,9.16 -54.93,0 -100.69,-18.29 -137.21,-54.64 -36.57,-36.37 -55.05,-82.05 -55.05,-136.94 0,-54.9 18.48,-100.73 55.05,-137.25"
         style="fill:#122657;fill-opacity:1;fill-rule:nonzero;stroke:none"
         transform="matrix(0.13333333,0,0,-0.13333333,0,1206.1333)" />
      <path
         id="path10"
         d="m 4583.91,4990.73 v -143.89 h 110.13 c 21.34,0 39.27,7.29 54.34,21.61 14.92,14.3 22.6,31.27 22.6,50.46 0,19.08 -7.68,35.88 -22.6,50.2 -15.07,14.4 -33,21.62 -54.34,21.62 z m 119.83,163.38 c 73.85,0 133.73,-22.2 179.84,-66.74 46.4,-44.47 69.32,-100.5 69.32,-168.25 0,-67.74 -22.92,-123.95 -69.46,-168.56 -46.4,-44.4 -106.04,-66.67 -179.7,-66.67 H 4583.91 V 4482.6 h -182.22 v 671.51 h 302.05"
         style="fill:#122657;fill-opacity:1;fill-rule:nonzero;stroke:none"
         transform="matrix(0.13333333,0,0,-0.13333333,0,1206.1333)" />
    </g>
  </g>
</svg>
