<?xml version="1.0" encoding="UTF-8" standalone="no"?>
<!-- Created with Inkscape (http://www.inkscape.org/) -->

<svg
   version="1.1"
   id="svg1"
   width="566.66718"
   height="186.77319"
   viewBox="0 0 566.66718 186.77319"
   sodipodi:docname="logotipo calado.eps"
   xmlns:inkscape="http://www.inkscape.org/namespaces/inkscape"
   xmlns:sodipodi="http://sodipodi.sourceforge.net/DTD/sodipodi-0.dtd"
   xmlns="http://www.w3.org/2000/svg"
   xmlns:svg="http://www.w3.org/2000/svg">
  <defs
     id="defs1" />
  <sodipodi:namedview
     id="namedview1"
     pagecolor="#ffffff"
     bordercolor="#000000"
     borderopacity="0.25"
     inkscape:showpageshadow="2"
     inkscape:pageopacity="0.0"
     inkscape:pagecheckerboard="0"
     inkscape:deskcolor="#d1d1d1" />
  <g
     id="g1"
     inkscape:groupmode="layer"
     inkscape:label="1"
     transform="translate(-80.602134,-954.62)">
    <g
       id="group-R5">
      <g
         id="g26">
        <g
           id="g27">
          <path
             id="path19"
             d="m 1728.42,864.832 c 8.75,8.809 15.61,19.59 19.87,31.738 l 30.22,94.2 h -47.06 c -37.23,-56.5 -126.65,-47.938 -200.7,-1.879 -116.63,72.659 -197.48,117.299 -254.71,120.639 -8.04,0.49 -15.6,0.15 -22.75,-1.05 -0.04,-0.01 -0.08,-0.02 -0.13,-0.02 8.95,-89.45 26.54,-144.878 36.46,-170.39 4.36,-11.238 7.24,-16.699 7.24,-16.699 l -10.73,2.168 c 0,0 -3.34,4 -8.84,12.422 -13.83,21.219 -41.26,70.519 -63.03,154.759 -16.45,-13.17 -27.99,-32.16 -31.53,-53.86 -0.68,-6.18 -0.99,-12.46 -0.99,-18.65 l 23.79,-55.519 30.9,-72.062 c -10.99,4.133 -24.94,9.922 -40.98,16.57 -109.8,45.653 -332.524,138.081 -501.352,59.289 -24.625,68.552 -38.118,142.462 -38.118,219.512 0,358.25 290.59,648.72 648.87,648.72 358.3,0 648.61,-290.47 648.61,-648.72 0,-58.49 -12.13,-143.04 -22.37,-169.08 -35.47,-80.451 -109.2,-128.201 -202.67,-152.088 z m 40.06,-125.18 c -70.43,-60.742 -170.72,-47.582 -239.23,-31.23 -104.89,25.328 -272.4,120.207 -316.32,149.168 1.07,1.281 3.84,5.332 4.91,6.461 81.87,-29.34 411.99,-112.281 626.48,-3.231 1.55,-1.672 2.97,-3.519 4.53,-5.121 1.46,-1.558 5.47,-5.179 7.12,-6.82 -22.86,-37.277 -60.24,-81.867 -87.49,-109.227 z M 1550.65,595.27 c -10.42,-3.84 -88.73,-28.75 -149.56,-11.899 -11.66,3.41 -22.77,7.07 -34.22,11.258 -83.25,30.781 -160.11,81.781 -232.75,138.41 -91.54,71.43 -158.057,163.961 -281.327,221.871 0.527,1.192 1.457,3.738 1.812,6.25 68.364,-8.031 153.935,-16.48 266.575,-85.512 43.43,-26.628 221.88,-131.808 245.69,-143.496 48.32,-23.273 98.15,-42.742 149.52,-57.961 28.8,-8.312 58,-15.312 88.05,-20.179 0,0 23.96,-2.949 31.2,-3.66 l 4.64,-10.872 C 1621.9,628 1573.08,603.23 1550.65,595.27 Z M 1324.37,547.652 C 1004.1,526.969 765.141,773.48 715.066,924.871 c 1.602,1.238 5.149,3.348 5.149,3.348 77.359,21.902 152.379,-17.469 237.48,-89.039 61.575,-51.739 184.315,-193.508 334.755,-261.571 14.16,-7.429 19.94,-10.39 35.62,-15.847 -0.37,-1.711 -2.78,-10.481 -3.7,-14.11 z M 1304.85,1886.35 C 918,1886.35 604.516,1572.75 604.516,1186 604.516,799.129 918,485.551 1304.85,485.551 c 386.87,0 700.42,313.578 700.42,700.449 0,386.75 -313.55,700.35 -700.42,700.35"
             style="fill:#ffffff;fill-opacity:1;fill-rule:nonzero;stroke:none"
             transform="matrix(0.13333333,0,0,-0.13333333,0,1206.1333)" />
          <path
             id="path20"
             d="m 1652.69,1261.87 c 8.08,52.98 25.48,102.89 50.49,148.02 -31.08,18.42 -64.88,32.71 -100.66,42.13 -32.27,8.5 -66.16,13.02 -101.08,13.02 -68.98,0 -133.83,-17.62 -190.31,-48.62 -10.26,-18.84 -19.03,-38.6 -26.19,-59.14 l -0.18,-0.15 -0.22,-0.69 c -23.2,-6.35 -45.31,-15.35 -65.98,-26.64 -22.63,-34.47 -35.81,-75.72 -35.81,-120.05 0,-29.65 5.89,-57.92 16.57,-83.7 3.85,-9.34 8.36,-18.36 13.45,-27 l -5.73,35.15 c 16.28,11.21 36.87,16.63 60.84,16.63 62.84,0 148.96,-37.23 241.42,-104.56 -0.77,1.98 -1.52,3.97 -2.23,5.94 -14.68,40.3 -22.68,83.8 -22.68,129.18 0,52.44 10.69,102.38 30.02,147.75 -30.69,16.95 -64.57,28.81 -100.53,34.44 l 1.5,4.82 c 43.58,-3.46 85.14,-14.11 123.47,-30.77 -12.59,-37.05 -19.42,-76.76 -19.42,-118.06 0,-45.86 8.42,-89.74 23.78,-130.2 56.91,-21.73 107.37,-56.5 147.73,-100.671 l 5.28,2.371 c -31.13,60.86 -48.68,129.81 -48.68,202.86 0,23.11 1.75,45.79 5.15,67.94"
             style="fill:#ffffff;fill-opacity:1;fill-rule:nonzero;stroke:none"
             transform="matrix(0.13333333,0,0,-0.13333333,0,1206.1333)" />
          <path
             id="path21"
             d="m 1004.01,1399.83 c 4.18,-44.84 11.74,-121.56 11.74,-121.56 h 13.47 c 0,0 7.75,76.72 12.03,121.56 2.51,27.18 13.3,39.11 32.63,43.82 15.91,3.96 65.15,11.07 65.15,11.07 v 12.61 c 0,0 -51.35,5.49 -67.89,11.07 -12.32,4.21 -25.06,8.92 -31.49,31.42 -4.94,17.29 -10.85,71.14 -10.85,71.14 h -6.19 -6.4 c 0,0 -5.95,-53.85 -10.92,-71.14 -6.173,-22.5 -18.962,-27.21 -31.388,-31.42 -16.535,-5.58 -67.918,-11.07 -67.918,-11.07 v -12.61 c 0,0 49.137,-7.11 65.145,-11.07 19.273,-4.71 30.131,-16.64 32.881,-43.82"
             style="fill:#ffffff;fill-opacity:1;fill-rule:nonzero;stroke:none"
             transform="matrix(0.13333333,0,0,-0.13333333,0,1206.1333)" />
          <path
             id="path22"
             d="m 1531.26,1527.97 -11.04,-48.47 c -32.34,27.15 -73.2,44.5 -117.98,47.44 l -1.81,7.14 c 18.12,8.09 38.21,12.58 59.33,12.58 25.99,0 50.37,-6.79 71.5,-18.69"
             style="fill:#ffffff;fill-opacity:1;fill-rule:nonzero;stroke:none"
             transform="matrix(0.13333333,0,0,-0.13333333,0,1206.1333)" />
          <path
             id="path23"
             d="m 2482.63,1362.51 v -142.96 h 109.27 c 21.17,0 39.05,7.25 54.03,21.48 14.83,14.2 22.23,31.06 22.23,50.12 0,18.96 -7.4,35.65 -22.23,49.87 -14.98,14.31 -32.86,21.49 -54.03,21.49 z m 119.16,162.31 c 73.03,0 132.53,-22.06 178.63,-66.31 45.71,-44.17 68.87,-99.84 68.87,-167.15 0,-67.29 -23.16,-123.14 -69.23,-167.46 -45.89,-44.11 -105.44,-66.23 -178.27,-66.23 H 2482.63 V 857.691 H 2301.5 v 667.129 h 300.29"
             style="fill:#ffffff;fill-opacity:1;fill-rule:nonzero;stroke:none"
             transform="matrix(0.13333333,0,0,-0.13333333,0,1206.1333)" />
          <path
             id="path24"
             d="m 3306.31,1039.03 c 24.39,25.71 36.48,57.37 36.48,94.97 v 390.82 h 180.99 V 1134 c 0,-83.87 -28.73,-153.879 -86.46,-210.578 -57.75,-56.492 -130.51,-84.902 -218.23,-84.902 -87.95,0 -160.46,28.41 -218.2,84.902 -57.73,56.699 -86.47,126.708 -86.47,210.578 v 390.82 h 180.81 V 1134 c 0,-37.6 12.31,-69.26 36.64,-94.97 24.19,-25.75 53.36,-38.49 87.22,-38.49 33.73,0 62.89,12.74 87.22,38.49"
             style="fill:#ffffff;fill-opacity:1;fill-rule:nonzero;stroke:none"
             transform="matrix(0.13333333,0,0,-0.13333333,0,1206.1333)" />
          <path
             id="path25"
             d="m 3823.86,1054.89 c 36.28,-36.32 81.75,-54.35 136.32,-54.35 33.95,0 65.72,7.04 95.88,21.35 30.03,14.33 51.73,28.59 65.17,43.28 l 20.14,21.35 104.52,-114.508 c -2.35,-3.703 -6.06,-8.641 -10.97,-14.66 -4.77,-6.043 -15.94,-16.723 -33.36,-32.043 -17.58,-15.368 -36.64,-28.918 -56.92,-40.758 -20.28,-11.821 -47.1,-22.352 -80.46,-31.879 -33.36,-9.391 -67.94,-14.152 -104,-14.152 -103.59,0 -191.35,34.671 -263.6,104.109 -71.98,69.291 -107.97,152.171 -107.97,248.611 0,96.53 35.99,179.34 107.97,248.74 72.25,69.23 160.01,104.01 263.6,104.01 35.74,0 69.78,-4.7 102.01,-13.91 32.16,-9.43 58.86,-20.49 79.67,-33.54 21,-13.01 39.2,-26.14 54.86,-39.13 15.78,-13.08 26.88,-24.26 33.94,-33.5 l 10.59,-13.63 -109.86,-114.44 c -1.77,2.64 -4.15,5.77 -7.39,9.58 -3.11,3.91 -10.38,10.75 -21.33,20.46 -11.32,9.84 -22.76,18.63 -35.01,26.1 -11.95,7.57 -27.99,14.44 -47.66,20.49 -19.57,6.12 -39.69,9.1 -59.82,9.1 -54.57,0 -100.04,-18.17 -136.32,-54.28 -36.33,-36.14 -54.69,-81.52 -54.69,-136.05 0,-54.54 18.36,-100.07 54.69,-136.35"
             style="fill:#ffffff;fill-opacity:1;fill-rule:nonzero;stroke:none"
             transform="matrix(0.13333333,0,0,-0.13333333,0,1206.1333)" />
          <path
             id="path26"
             d="m 4487.93,1362.51 v -142.96 h 109.41 c 21.2,0 39.02,7.25 53.99,21.48 14.83,14.2 22.45,31.06 22.45,50.12 0,18.96 -7.62,35.65 -22.45,49.87 -14.97,14.31 -32.79,21.49 -53.99,21.49 z m 119.05,162.31 c 73.37,0 132.86,-22.06 178.67,-66.31 46.1,-44.17 68.87,-99.84 68.87,-167.15 0,-67.29 -22.77,-123.14 -69.01,-167.46 -46.1,-44.11 -105.35,-66.23 -178.53,-66.23 H 4487.93 V 857.691 H 4306.9 v 667.129 h 300.08"
             style="fill:#ffffff;fill-opacity:1;fill-rule:nonzero;stroke:none"
             transform="matrix(0.13333333,0,0,-0.13333333,0,1206.1333)" />
        </g>
      </g>
    </g>
  </g>
</svg>
