<?xml version="1.0" encoding="UTF-8" standalone="no"?>
<!-- Created with Inkscape (http://www.inkscape.org/) -->

<svg
   version="1.1"
   id="svg1"
   width="563.48077"
   height="172.89877"
   viewBox="0 0 563.48078 172.89877"
   sodipodi:docname="logotipo calado.eps"
   inkscape:version="0.0"
   xmlns:inkscape="http://www.inkscape.org/namespaces/inkscape"
   xmlns:sodipodi="http://sodipodi.sourceforge.net/DTD/sodipodi-0.dtd"
   xmlns="http://www.w3.org/2000/svg"
   xmlns:svg="http://www.w3.org/2000/svg">
  <defs
     id="defs1" />
  <sodipodi:namedview
     id="namedview1"
     pagecolor="#ffffff"
     bordercolor="#000000"
     borderopacity="0.25"
     inkscape:showpageshadow="2"
     inkscape:pageopacity="0.0"
     inkscape:pagecheckerboard="0"
     inkscape:deskcolor="#d1d1d1"
     inkscape:zoom="0.68068761"
     inkscape:cx="364.33747"
     inkscape:cy="754.38423"
     inkscape:window-width="1920"
     inkscape:window-height="1017"
     inkscape:window-x="-8"
     inkscape:window-y="-8"
     inkscape:window-maximized="1"
     inkscape:current-layer="group-R5" />
  <g
     id="g1"
     inkscape:groupmode="layer"
     inkscape:label="1"
     transform="translate(-103.42187,0.00533651)">
    <g
       id="group-R5">
      <path
         id="path2"
         d="M 5459.63,0 H 0 V 2372.02 H 5459.63 V 0"
         style="fill:#122657;fill-opacity:1;fill-rule:nonzero;stroke:none"
         transform="matrix(0.13333333,0,0,-0.13333333,0,1206.1333)" />
      <path
         id="path3"
         d="m 1442.35,4217.82 c 11.52,-4.22 22.71,-7.91 34.45,-11.34 61.23,-16.96 140.05,8.11 150.54,11.98 22.57,8.01 71.72,32.94 90.21,44.5 l -4.66,10.94 c -7.28,0.71 -31.4,3.68 -31.4,3.68 -30.26,4.91 -59.64,11.95 -88.63,20.32 -51.71,15.31 -101.87,34.91 -150.51,58.34 -23.96,11.76 -203.59,117.64 -247.3,144.44 -113.38,69.48 -199.515,77.98 -268.323,86.07 -0.36,-2.53 -1.293,-5.1 -1.829,-6.29 124.082,-58.29 191.042,-151.43 283.182,-223.33 73.11,-57 150.47,-108.34 234.27,-139.31"
         style="fill:#122657;fill-opacity:1;fill-rule:nonzero;stroke:none"
         transform="matrix(0.13333333,0,0,-0.13333333,0,1206.1333)"
         inkscape:export-filename="..\..\..\Documentos\gitErrant\TemplateLatex\imagenes\principal-solo-barco.svg"
         inkscape:export-xdpi="96"
         inkscape:export-ydpi="96" />
      <path
         id="path4"
         d="m 791.449,4553.6 c 0,0 -3.566,-2.13 -5.179,-3.37 50.406,-152.39 290.93,-400.52 613.31,-379.7 0.92,3.65 3.35,12.47 3.71,14.2 -15.78,5.49 -21.6,8.48 -35.85,15.95 -151.42,68.5 -274.97,211.21 -336.95,263.29 -85.658,72.03 -161.17,111.67 -239.041,89.63"
         style="fill:#122657;fill-opacity:1;fill-rule:nonzero;stroke:none"
         transform="matrix(0.13333333,0,0,-0.13333333,0,1206.1333)" />
      <path
         id="path5"
         d="m 1927.5,4480.6 c -1.57,1.61 -3,3.47 -4.57,5.15 -215.89,-109.77 -548.18,-26.29 -630.59,3.25 -1.07,-1.13 -3.86,-5.22 -4.94,-6.5 44.22,-29.15 212.83,-124.65 318.4,-150.15 68.96,-16.46 169.91,-29.7 240.81,31.44 27.42,27.53 65.04,72.42 88.05,109.94 -1.66,1.65 -5.69,5.3 -7.16,6.87"
         style="fill:#122657;fill-opacity:1;fill-rule:nonzero;stroke:none"
         transform="matrix(0.13333333,0,0,-0.13333333,0,1206.1333)" />
      <path
         id="path6"
         d="m 1773.87,4616.86 -5.32,-2.39 c -40.62,44.46 -91.41,79.46 -148.7,101.33 -15.46,40.73 -23.94,84.89 -23.94,131.06 0,41.57 6.88,81.54 19.56,118.83 -38.59,16.77 -80.42,27.49 -124.28,30.97 l -1.52,-4.85 c 36.19,-5.66 70.3,-17.6 101.19,-34.67 -19.46,-45.66 -30.21,-95.94 -30.21,-148.72 0,-45.67 8.05,-89.46 22.83,-130.02 0.71,-1.99 1.47,-3.99 2.24,-5.99 -93.06,67.78 -179.75,105.26 -243.01,105.26 -24.13,0 -44.85,-5.46 -61.23,-16.74 l 5.76,-35.39 c -5.12,8.7 -9.66,17.78 -13.54,27.18 -10.75,25.95 -16.68,54.41 -16.68,84.25 0,44.62 13.27,86.14 36.05,120.84 20.81,11.37 43.06,20.42 66.41,26.81 l 0.22,0.69 0.18,0.16 c 7.21,20.67 16.04,40.56 26.37,59.53 56.85,31.2 122.12,48.94 191.55,48.94 35.16,0 69.27,-4.55 101.75,-13.11 36.01,-9.48 70.04,-23.86 101.32,-42.41 -25.17,-45.42 -42.68,-95.66 -50.82,-148.99 -3.42,-22.29 -5.18,-45.13 -5.18,-68.38 0,-73.54 17.66,-142.93 49,-204.19 z m -238.01,559.23 c 26.15,0 50.7,-6.83 71.96,-18.81 l -11.11,-48.79 c -32.55,27.33 -73.68,44.79 -118.76,47.76 l -1.82,7.19 c 18.25,8.13 38.46,12.65 59.73,12.65 z m -322.84,-92.54 c 0,0 -49.56,-7.16 -65.58,-11.14 -19.46,-4.74 -30.32,-16.75 -32.84,-44.11 -4.31,-45.14 -12.11,-122.35 -12.11,-122.35 h -13.56 c 0,0 -7.61,77.21 -11.82,122.35 -2.77,27.36 -13.69,39.37 -33.09,44.11 -16.12,3.98 -65.579,11.14 -65.579,11.14 v 12.69 c 0,0 51.719,5.53 68.369,11.14 12.51,4.24 25.38,8.98 31.59,31.63 5,17.4 10.99,71.61 10.99,71.61 h 6.44 6.24 c 0,0 5.94,-54.21 10.91,-71.61 6.48,-22.65 19.3,-27.39 31.7,-31.63 16.65,-5.61 68.34,-11.14 68.34,-11.14 z m 166.91,382.49 c -360.64,0 -653.133,-292.37 -653.133,-652.98 0,-77.55 13.578,-151.95 38.367,-220.94 169.934,79.3 394.126,-13.73 504.646,-59.68 16.14,-6.7 30.18,-12.53 41.24,-16.68 l -31.1,72.53 -23.94,55.88 c 0,6.24 0.31,12.55 1,18.78 3.56,21.83 15.18,40.95 31.73,54.21 21.92,-84.79 49.53,-134.42 63.45,-155.78 5.53,-8.47 8.9,-12.5 8.9,-12.5 l 10.79,-2.18 c 0,0 -2.89,5.49 -7.28,16.81 -9.99,25.68 -27.7,81.47 -36.7,171.51 0.05,0 0.09,0.01 0.13,0.01 7.19,1.22 14.8,1.56 22.9,1.06 57.6,-3.36 138.98,-48.29 256.38,-121.43 74.54,-46.36 164.55,-54.98 202.01,1.9 h 47.37 l -30.41,-94.83 c -4.29,-12.22 -11.19,-23.07 -20,-31.94 94.08,24.04 168.29,72.11 203.99,153.09 10.32,26.21 22.52,111.31 22.52,170.18 0,360.61 -292.21,652.98 -652.86,652.98"
         style="fill:#122657;fill-opacity:1;fill-rule:nonzero;stroke:none"
         transform="matrix(0.13333333,0,0,-0.13333333,0,1206.1333)" />
      <path
         id="path7"
         d="m 2565.44,4990.73 v -143.89 h 109.99 c 21.3,0 39.31,7.29 54.38,21.61 14.93,14.3 22.38,31.27 22.38,50.46 0,19.08 -7.45,35.88 -22.38,50.2 -15.07,14.4 -33.08,21.62 -54.38,21.62 z m 119.94,163.38 c 73.51,0 133.4,-22.2 179.81,-66.74 46.01,-44.47 69.31,-100.5 69.31,-168.25 0,-67.74 -23.3,-123.95 -69.68,-168.56 -46.18,-44.4 -106.13,-66.67 -179.44,-66.67 H 2565.44 V 4482.6 h -182.32 v 671.51 h 302.26"
         style="fill:#122657;fill-opacity:1;fill-rule:nonzero;stroke:none"
         transform="matrix(0.13333333,0,0,-0.13333333,0,1206.1333)" />
      <path
         id="path8"
         d="m 3394.53,4665.14 c 24.55,25.87 36.72,57.74 36.72,95.58 v 393.39 h 182.18 v -393.39 c 0,-84.42 -28.93,-154.89 -87.04,-211.96 -58.12,-56.86 -131.36,-85.46 -219.65,-85.46 -88.53,0 -161.52,28.6 -219.63,85.46 -58.11,57.07 -87.04,127.54 -87.04,211.96 v 393.39 h 181.99 v -393.39 c 0,-37.84 12.4,-69.71 36.89,-95.58 24.34,-25.93 53.7,-38.75 87.79,-38.75 33.94,0 63.3,12.82 87.79,38.75"
         style="fill:#122657;fill-opacity:1;fill-rule:nonzero;stroke:none"
         transform="matrix(0.13333333,0,0,-0.13333333,0,1206.1333)" />
      <path
         id="path9"
         d="m 3915.48,4681.09 c 36.52,-36.55 82.28,-54.7 137.21,-54.7 34.18,0 66.16,7.09 96.52,21.48 30.22,14.43 52.06,28.79 65.59,43.57 l 20.27,21.49 105.2,-115.26 c -2.36,-3.72 -6.1,-8.7 -11.04,-14.75 -4.8,-6.09 -16.04,-16.83 -33.58,-32.26 -17.69,-15.47 -36.88,-29.11 -57.29,-41.03 -20.42,-11.89 -47.4,-22.49 -80.98,-32.09 -33.59,-9.44 -68.39,-14.24 -104.69,-14.24 -104.27,0 -192.6,34.9 -265.32,104.8 -72.46,69.74 -108.69,153.17 -108.69,250.24 0,97.17 36.23,180.52 108.69,250.37 72.72,69.69 161.05,104.69 265.32,104.69 35.98,0 70.24,-4.72 102.68,-14 32.37,-9.49 59.25,-20.62 80.19,-33.76 21.14,-13.09 39.46,-26.31 55.23,-39.38 15.88,-13.17 27.05,-24.42 34.16,-33.73 l 10.66,-13.71 -110.58,-115.19 c -1.78,2.66 -4.18,5.81 -7.44,9.64 -3.13,3.94 -10.45,10.82 -21.48,20.59 -11.39,9.91 -22.91,18.75 -35.23,26.28 -12.03,7.62 -28.17,14.53 -47.98,20.62 -19.7,6.16 -39.95,9.16 -60.21,9.16 -54.93,0 -100.69,-18.29 -137.21,-54.64 -36.57,-36.37 -55.05,-82.05 -55.05,-136.94 0,-54.9 18.48,-100.73 55.05,-137.25"
         style="fill:#122657;fill-opacity:1;fill-rule:nonzero;stroke:none"
         transform="matrix(0.13333333,0,0,-0.13333333,0,1206.1333)" />
      <path
         id="path10"
         d="m 4583.91,4990.73 v -143.89 h 110.13 c 21.34,0 39.27,7.29 54.34,21.61 14.92,14.3 22.6,31.27 22.6,50.46 0,19.08 -7.68,35.88 -22.6,50.2 -15.07,14.4 -33,21.62 -54.34,21.62 z m 119.83,163.38 c 73.85,0 133.73,-22.2 179.84,-66.74 46.4,-44.47 69.32,-100.5 69.32,-168.25 0,-67.74 -22.92,-123.95 -69.46,-168.56 -46.4,-44.4 -106.04,-66.67 -179.7,-66.67 H 4583.91 V 4482.6 h -182.22 v 671.51 h 302.05"
         style="fill:#122657;fill-opacity:1;fill-rule:nonzero;stroke:none"
         transform="matrix(0.13333333,0,0,-0.13333333,0,1206.1333)" />
      <path
         id="path11"
         d="m 1976.37,8060.6 c -1.57,1.61 -3,3.47 -4.57,5.15 -215.89,-109.77 -548.18,-26.29 -630.59,3.25 -1.07,-1.13 -3.86,-5.22 -4.94,-6.5 44.22,-29.15 212.83,-124.65 318.4,-150.15 68.96,-16.46 169.91,-29.7 240.8,31.44 27.43,27.53 65.05,72.42 88.06,109.94 -1.66,1.65 -5.69,5.3 -7.16,6.87"
         style="fill:#080805;fill-opacity:1;fill-rule:nonzero;stroke:none"
         transform="matrix(0.13333333,0,0,-0.13333333,0,1206.1333)" />
      <path
         id="path12"
         d="m 1491.22,7797.82 c 11.52,-4.22 22.71,-7.91 34.45,-11.34 61.23,-16.96 140.05,8.11 150.54,11.98 22.57,8.01 71.72,32.94 90.21,44.5 l -4.66,10.94 c -7.29,0.71 -31.4,3.68 -31.4,3.68 -30.26,4.91 -59.64,11.95 -88.63,20.32 -51.71,15.31 -101.87,34.91 -150.51,58.34 -23.96,11.76 -203.59,117.64 -247.3,144.44 -113.38,69.48 -199.51,77.98 -268.326,86.07 -0.356,-2.53 -1.289,-5.1 -1.824,-6.29 124.08,-58.29 191.04,-151.43 283.18,-223.33 73.11,-57 150.47,-108.34 234.27,-139.31"
         style="fill:#080805;fill-opacity:1;fill-rule:nonzero;stroke:none"
         transform="matrix(0.13333333,0,0,-0.13333333,0,1206.1333)" />
      <path
         id="path13"
         d="m 840.32,8133.6 c 0,0 -3.57,-2.13 -5.179,-3.37 50.406,-152.39 290.929,-400.52 613.309,-379.7 0.92,3.65 3.35,12.47 3.71,14.2 -15.78,5.49 -21.6,8.48 -35.85,15.95 -151.42,68.5 -274.97,211.21 -336.95,263.29 -85.657,72.03 -161.169,111.67 -239.04,89.63"
         style="fill:#080805;fill-opacity:1;fill-rule:nonzero;stroke:none"
         transform="matrix(0.13333333,0,0,-0.13333333,0,1206.1333)" />
      <path
         id="path14"
         d="m 1822.74,8196.86 -5.32,-2.39 c -40.62,44.46 -91.41,79.46 -148.7,101.33 -15.46,40.73 -23.94,84.9 -23.94,131.06 0,41.57 6.88,81.54 19.56,118.84 -38.59,16.76 -80.42,27.48 -124.28,30.96 l -1.52,-4.84 c 36.19,-5.67 70.3,-17.61 101.19,-34.68 -19.46,-45.66 -30.21,-95.93 -30.21,-148.72 0,-45.67 8.05,-89.46 22.83,-130.02 0.71,-1.99 1.47,-3.99 2.24,-5.99 -93.06,67.78 -179.75,105.26 -243.01,105.26 -24.13,0 -44.85,-5.46 -61.23,-16.74 l 5.76,-35.39 c -5.12,8.7 -9.66,17.78 -13.54,27.18 -10.75,25.95 -16.68,54.41 -16.68,84.25 0,44.62 13.27,86.14 36.05,120.83 20.81,11.38 43.06,20.43 66.41,26.82 l 0.22,0.7 0.18,0.15 c 7.21,20.67 16.04,40.56 26.37,59.53 56.85,31.2 122.12,48.94 191.55,48.94 35.16,0 69.27,-4.55 101.75,-13.1 36.01,-9.49 70.04,-23.87 101.32,-42.42 -25.17,-45.42 -42.68,-95.66 -50.82,-148.99 -3.42,-22.29 -5.18,-45.13 -5.18,-68.38 0,-73.53 17.66,-142.93 49,-204.19 z m -238.01,559.23 c 26.15,0 50.7,-6.83 71.96,-18.81 l -11.11,-48.78 c -32.55,27.32 -73.68,44.79 -118.76,47.75 l -1.82,7.18 c 18.25,8.14 38.46,12.66 59.73,12.66 z m -322.84,-92.54 c 0,0 -49.57,-7.16 -65.58,-11.14 -19.46,-4.75 -30.32,-16.75 -32.84,-44.11 -4.31,-45.14 -12.11,-122.35 -12.11,-122.35 h -13.56 c 0,0 -7.61,77.21 -11.82,122.35 -2.77,27.36 -13.69,39.36 -33.1,44.11 -16.11,3.98 -65.57,11.14 -65.57,11.14 v 12.69 c 0,0 51.72,5.53 68.37,11.14 12.51,4.25 25.38,8.98 31.59,31.64 5,17.39 10.99,71.6 10.99,71.6 h 6.44 6.24 c 0,0 5.94,-54.21 10.91,-71.6 6.48,-22.66 19.3,-27.39 31.7,-31.64 16.65,-5.61 68.34,-11.14 68.34,-11.14 z m 797.25,-440.67 c 10.32,26.21 22.52,111.31 22.52,170.18 0,360.61 -292.21,652.98 -652.86,652.98 -360.64,0 -653.136,-292.37 -653.136,-652.98 0,-77.55 13.582,-151.95 38.371,-220.94 169.934,79.3 394.125,-13.73 504.635,-59.68 16.15,-6.7 30.19,-12.53 41.25,-16.68 l -31.1,72.53 -23.94,55.88 c 0,6.24 0.31,12.55 1,18.78 3.56,21.84 15.18,40.96 31.73,54.21 21.92,-84.79 49.53,-134.42 63.45,-155.78 5.53,-8.47 8.89,-12.5 8.89,-12.5 l 10.8,-2.18 c 0,0 -2.89,5.49 -7.29,16.81 -9.98,25.68 -27.69,81.47 -36.69,171.51 0.05,0 0.09,0.01 0.13,0.02 7.19,1.21 14.8,1.55 22.9,1.05 57.6,-3.36 138.98,-48.29 256.38,-121.43 74.54,-46.36 164.55,-54.98 202.01,1.9 h 47.37 l -30.41,-94.83 c -4.29,-12.22 -11.19,-23.07 -20,-31.94 94.08,24.04 168.29,72.11 203.99,153.09"
         style="fill:#080805;fill-opacity:1;fill-rule:nonzero;stroke:none"
         transform="matrix(0.13333333,0,0,-0.13333333,0,1206.1333)" />
      <path
         id="path15"
         d="m 2614.31,8570.73 v -143.89 h 109.99 c 21.3,0 39.31,7.29 54.38,21.61 14.93,14.3 22.38,31.27 22.38,50.46 0,19.08 -7.45,35.88 -22.38,50.2 -15.07,14.4 -33.08,21.62 -54.38,21.62 z m 119.94,163.38 c 73.51,0 133.4,-22.2 179.81,-66.74 46.01,-44.46 69.31,-100.5 69.31,-168.25 0,-67.74 -23.3,-123.95 -69.68,-168.56 -46.18,-44.4 -106.13,-66.67 -179.44,-66.67 H 2614.31 V 8062.6 h -182.32 v 671.51 h 302.26"
         style="fill:#080805;fill-opacity:1;fill-rule:nonzero;stroke:none"
         transform="matrix(0.13333333,0,0,-0.13333333,0,1206.1333)" />
      <path
         id="path16"
         d="m 3443.4,8245.14 c 24.55,25.87 36.72,57.74 36.72,95.58 v 393.39 h 182.18 v -393.39 c 0,-84.42 -28.93,-154.89 -87.04,-211.96 -58.12,-56.86 -131.36,-85.46 -219.65,-85.46 -88.53,0 -161.52,28.6 -219.63,85.46 -58.11,57.07 -87.04,127.54 -87.04,211.96 v 393.39 h 181.99 v -393.39 c 0,-37.84 12.4,-69.71 36.89,-95.58 24.34,-25.93 53.7,-38.75 87.79,-38.75 33.94,0 63.3,12.82 87.79,38.75"
         style="fill:#080805;fill-opacity:1;fill-rule:nonzero;stroke:none"
         transform="matrix(0.13333333,0,0,-0.13333333,0,1206.1333)" />
      <path
         id="path17"
         d="m 3964.35,8261.09 c 36.52,-36.55 82.28,-54.7 137.21,-54.7 34.18,0 66.16,7.09 96.51,21.49 30.23,14.42 52.07,28.78 65.59,43.57 l 20.28,21.48 105.2,-115.26 c -2.36,-3.72 -6.1,-8.7 -11.04,-14.75 -4.8,-6.09 -16.04,-16.83 -33.58,-32.26 -17.69,-15.47 -36.88,-29.11 -57.29,-41.03 -20.42,-11.89 -47.4,-22.49 -80.98,-32.08 -33.59,-9.45 -68.39,-14.25 -104.69,-14.25 -104.27,0 -192.6,34.9 -265.32,104.8 -72.46,69.74 -108.69,153.17 -108.69,250.24 0,97.17 36.23,180.52 108.69,250.37 72.72,69.69 161.05,104.7 265.32,104.7 35.98,0 70.24,-4.73 102.68,-14 32.37,-9.5 59.25,-20.62 80.19,-33.77 21.14,-13.09 39.46,-26.31 55.22,-39.38 15.88,-13.17 27.06,-24.42 34.17,-33.72 l 10.66,-13.72 -110.58,-115.19 c -1.78,2.66 -4.19,5.81 -7.44,9.64 -3.14,3.94 -10.46,10.82 -21.48,20.59 -11.39,9.91 -22.91,18.75 -35.23,26.28 -12.03,7.62 -28.17,14.53 -47.98,20.62 -19.7,6.16 -39.95,9.16 -60.21,9.16 -54.93,0 -100.69,-18.29 -137.21,-54.64 -36.57,-36.37 -55.05,-82.05 -55.05,-136.94 0,-54.89 18.48,-100.73 55.05,-137.25"
         style="fill:#080805;fill-opacity:1;fill-rule:nonzero;stroke:none"
         transform="matrix(0.13333333,0,0,-0.13333333,0,1206.1333)" />
      <path
         id="path18"
         d="m 4632.77,8570.73 v -143.89 h 110.14 c 21.34,0 39.27,7.29 54.34,21.61 14.92,14.3 22.6,31.27 22.6,50.46 0,19.08 -7.68,35.88 -22.6,50.2 -15.07,14.4 -33,21.62 -54.34,21.62 z m 119.84,163.38 c 73.85,0 133.73,-22.2 179.84,-66.74 46.4,-44.46 69.32,-100.5 69.32,-168.25 0,-67.74 -22.92,-123.95 -69.46,-168.56 -46.4,-44.4 -106.04,-66.67 -179.7,-66.67 H 4632.77 V 8062.6 h -182.22 v 671.51 h 302.06"
         style="fill:#080805;fill-opacity:1;fill-rule:nonzero;stroke:none"
         transform="matrix(0.13333333,0,0,-0.13333333,0,1206.1333)" />
      <path
         id="path19"
         d="m 1728.42,864.832 c 8.75,8.809 15.61,19.59 19.87,31.738 l 30.22,94.2 h -47.06 c -37.23,-56.5 -126.65,-47.938 -200.7,-1.879 -116.63,72.659 -197.48,117.299 -254.71,120.639 -8.04,0.49 -15.6,0.15 -22.75,-1.05 -0.04,-0.01 -0.08,-0.02 -0.13,-0.02 8.95,-89.45 26.54,-144.878 36.46,-170.39 4.36,-11.238 7.24,-16.699 7.24,-16.699 l -10.73,2.168 c 0,0 -3.34,4 -8.84,12.422 -13.83,21.219 -41.26,70.519 -63.03,154.759 -16.45,-13.17 -27.99,-32.16 -31.53,-53.86 -0.68,-6.18 -0.99,-12.46 -0.99,-18.65 l 23.79,-55.519 30.9,-72.062 c -10.99,4.133 -24.94,9.922 -40.98,16.57 -109.8,45.653 -332.524,138.081 -501.352,59.289 -24.625,68.552 -38.118,142.462 -38.118,219.512 0,358.25 290.59,648.72 648.87,648.72 358.3,0 648.61,-290.47 648.61,-648.72 0,-58.49 -12.13,-143.04 -22.37,-169.08 -35.47,-80.451 -109.2,-128.201 -202.67,-152.088 z m 40.06,-125.18 c -70.43,-60.742 -170.72,-47.582 -239.23,-31.23 -104.89,25.328 -272.4,120.207 -316.32,149.168 1.07,1.281 3.84,5.332 4.91,6.461 81.87,-29.34 411.99,-112.281 626.48,-3.231 1.55,-1.672 2.97,-3.519 4.53,-5.121 1.46,-1.558 5.47,-5.179 7.12,-6.82 -22.86,-37.277 -60.24,-81.867 -87.49,-109.227 z M 1550.65,595.27 c -10.42,-3.84 -88.73,-28.75 -149.56,-11.899 -11.66,3.41 -22.77,7.07 -34.22,11.258 -83.25,30.781 -160.11,81.781 -232.75,138.41 -91.54,71.43 -158.057,163.961 -281.327,221.871 0.527,1.192 1.457,3.738 1.812,6.25 68.364,-8.031 153.935,-16.48 266.575,-85.512 43.43,-26.628 221.88,-131.808 245.69,-143.496 48.32,-23.273 98.15,-42.742 149.52,-57.961 28.8,-8.312 58,-15.312 88.05,-20.179 0,0 23.96,-2.949 31.2,-3.66 l 4.64,-10.872 C 1621.9,628 1573.08,603.23 1550.65,595.27 Z M 1324.37,547.652 C 1004.1,526.969 765.141,773.48 715.066,924.871 c 1.602,1.238 5.149,3.348 5.149,3.348 77.359,21.902 152.379,-17.469 237.48,-89.039 61.575,-51.739 184.315,-193.508 334.755,-261.571 14.16,-7.429 19.94,-10.39 35.62,-15.847 -0.37,-1.711 -2.78,-10.481 -3.7,-14.11 z M 1304.85,1886.35 C 918,1886.35 604.516,1572.75 604.516,1186 604.516,799.129 918,485.551 1304.85,485.551 c 386.87,0 700.42,313.578 700.42,700.449 0,386.75 -313.55,700.35 -700.42,700.35"
         style="fill:#ffffff;fill-opacity:1;fill-rule:nonzero;stroke:none"
         transform="matrix(0.13333333,0,0,-0.13333333,0,1206.1333)" />
      <path
         id="path20"
         d="m 1652.69,1261.87 c 8.08,52.98 25.48,102.89 50.49,148.02 -31.08,18.42 -64.88,32.71 -100.66,42.13 -32.27,8.5 -66.16,13.02 -101.08,13.02 -68.98,0 -133.83,-17.62 -190.31,-48.62 -10.26,-18.84 -19.03,-38.6 -26.19,-59.14 l -0.18,-0.15 -0.22,-0.69 c -23.2,-6.35 -45.31,-15.35 -65.98,-26.64 -22.63,-34.47 -35.81,-75.72 -35.81,-120.05 0,-29.65 5.89,-57.92 16.57,-83.7 3.85,-9.34 8.36,-18.36 13.45,-27 l -5.73,35.15 c 16.28,11.21 36.87,16.63 60.84,16.63 62.84,0 148.96,-37.23 241.42,-104.56 -0.77,1.98 -1.52,3.97 -2.23,5.94 -14.68,40.3 -22.68,83.8 -22.68,129.18 0,52.44 10.69,102.38 30.02,147.75 -30.69,16.95 -64.57,28.81 -100.53,34.44 l 1.5,4.82 c 43.58,-3.46 85.14,-14.11 123.47,-30.77 -12.59,-37.05 -19.42,-76.76 -19.42,-118.06 0,-45.86 8.42,-89.74 23.78,-130.2 56.91,-21.73 107.37,-56.5 147.73,-100.671 l 5.28,2.371 c -31.13,60.86 -48.68,129.81 -48.68,202.86 0,23.11 1.75,45.79 5.15,67.94"
         style="fill:#ffffff;fill-opacity:1;fill-rule:nonzero;stroke:none"
         transform="matrix(0.13333333,0,0,-0.13333333,0,1206.1333)" />
      <path
         id="path21"
         d="m 1004.01,1399.83 c 4.18,-44.84 11.74,-121.56 11.74,-121.56 h 13.47 c 0,0 7.75,76.72 12.03,121.56 2.51,27.18 13.3,39.11 32.63,43.82 15.91,3.96 65.15,11.07 65.15,11.07 v 12.61 c 0,0 -51.35,5.49 -67.89,11.07 -12.32,4.21 -25.06,8.92 -31.49,31.42 -4.94,17.29 -10.85,71.14 -10.85,71.14 h -6.19 -6.4 c 0,0 -5.95,-53.85 -10.92,-71.14 -6.173,-22.5 -18.962,-27.21 -31.388,-31.42 -16.535,-5.58 -67.918,-11.07 -67.918,-11.07 v -12.61 c 0,0 49.137,-7.11 65.145,-11.07 19.273,-4.71 30.131,-16.64 32.881,-43.82"
         style="fill:#ffffff;fill-opacity:1;fill-rule:nonzero;stroke:none"
         transform="matrix(0.13333333,0,0,-0.13333333,0,1206.1333)" />
      <path
         id="path22"
         d="m 1531.26,1527.97 -11.04,-48.47 c -32.34,27.15 -73.2,44.5 -117.98,47.44 l -1.81,7.14 c 18.12,8.09 38.21,12.58 59.33,12.58 25.99,0 50.37,-6.79 71.5,-18.69"
         style="fill:#ffffff;fill-opacity:1;fill-rule:nonzero;stroke:none"
         transform="matrix(0.13333333,0,0,-0.13333333,0,1206.1333)" />
      <path
         id="path23"
         d="m 2482.63,1362.51 v -142.96 h 109.27 c 21.17,0 39.05,7.25 54.03,21.48 14.83,14.2 22.23,31.06 22.23,50.12 0,18.96 -7.4,35.65 -22.23,49.87 -14.98,14.31 -32.86,21.49 -54.03,21.49 z m 119.16,162.31 c 73.03,0 132.53,-22.06 178.63,-66.31 45.71,-44.17 68.87,-99.84 68.87,-167.15 0,-67.29 -23.16,-123.14 -69.23,-167.46 -45.89,-44.11 -105.44,-66.23 -178.27,-66.23 H 2482.63 V 857.691 H 2301.5 v 667.129 h 300.29"
         style="fill:#ffffff;fill-opacity:1;fill-rule:nonzero;stroke:none"
         transform="matrix(0.13333333,0,0,-0.13333333,0,1206.1333)" />
      <path
         id="path24"
         d="m 3306.31,1039.03 c 24.39,25.71 36.48,57.37 36.48,94.97 v 390.82 h 180.99 V 1134 c 0,-83.87 -28.73,-153.879 -86.46,-210.578 -57.75,-56.492 -130.51,-84.902 -218.23,-84.902 -87.95,0 -160.46,28.41 -218.2,84.902 -57.73,56.699 -86.47,126.708 -86.47,210.578 v 390.82 h 180.81 V 1134 c 0,-37.6 12.31,-69.26 36.64,-94.97 24.19,-25.75 53.36,-38.49 87.22,-38.49 33.73,0 62.89,12.74 87.22,38.49"
         style="fill:#ffffff;fill-opacity:1;fill-rule:nonzero;stroke:none"
         transform="matrix(0.13333333,0,0,-0.13333333,0,1206.1333)" />
      <path
         id="path25"
         d="m 3823.86,1054.89 c 36.28,-36.32 81.75,-54.35 136.32,-54.35 33.95,0 65.72,7.04 95.88,21.35 30.03,14.33 51.73,28.59 65.17,43.28 l 20.14,21.35 104.52,-114.508 c -2.35,-3.703 -6.06,-8.641 -10.97,-14.66 -4.77,-6.043 -15.94,-16.723 -33.36,-32.043 -17.58,-15.368 -36.64,-28.918 -56.92,-40.758 -20.28,-11.821 -47.1,-22.352 -80.46,-31.879 -33.36,-9.391 -67.94,-14.152 -104,-14.152 -103.59,0 -191.35,34.671 -263.6,104.109 -71.98,69.291 -107.97,152.171 -107.97,248.611 0,96.53 35.99,179.34 107.97,248.74 72.25,69.23 160.01,104.01 263.6,104.01 35.74,0 69.78,-4.7 102.01,-13.91 32.16,-9.43 58.86,-20.49 79.67,-33.54 21,-13.01 39.2,-26.14 54.86,-39.13 15.78,-13.08 26.88,-24.26 33.94,-33.5 l 10.59,-13.63 -109.86,-114.44 c -1.77,2.64 -4.15,5.77 -7.39,9.58 -3.11,3.91 -10.38,10.75 -21.33,20.46 -11.32,9.84 -22.76,18.63 -35.01,26.1 -11.95,7.57 -27.99,14.44 -47.66,20.49 -19.57,6.12 -39.69,9.1 -59.82,9.1 -54.57,0 -100.04,-18.17 -136.32,-54.28 -36.33,-36.14 -54.69,-81.52 -54.69,-136.05 0,-54.54 18.36,-100.07 54.69,-136.35"
         style="fill:#ffffff;fill-opacity:1;fill-rule:nonzero;stroke:none"
         transform="matrix(0.13333333,0,0,-0.13333333,0,1206.1333)" />
      <path
         id="path26"
         d="m 4487.93,1362.51 v -142.96 h 109.41 c 21.2,0 39.02,7.25 53.99,21.48 14.83,14.2 22.45,31.06 22.45,50.12 0,18.96 -7.62,35.65 -22.45,49.87 -14.97,14.31 -32.79,21.49 -53.99,21.49 z m 119.05,162.31 c 73.37,0 132.86,-22.06 178.67,-66.31 46.1,-44.17 68.87,-99.84 68.87,-167.15 0,-67.29 -22.77,-123.14 -69.01,-167.46 -46.1,-44.11 -105.35,-66.23 -178.53,-66.23 H 4487.93 V 857.691 H 4306.9 v 667.129 h 300.08"
         style="fill:#ffffff;fill-opacity:1;fill-rule:nonzero;stroke:none"
         transform="matrix(0.13333333,0,0,-0.13333333,0,1206.1333)" />
    </g>
  </g>
</svg>
