<?xml version="1.0" encoding="UTF-8"?>
<svg version="1.1" xmlns="http://www.w3.org/2000/svg" width="640" height="640">
<path d="M0 0 C211.2 0 422.4 0 640 0 C640 211.2 640 422.4 640 640 C428.8 640 217.6 640 0 640 C0 428.8 0 217.6 0 0 Z " fill="#3A3A39" transform="translate(0,0)"/>
<path d="M0 0 C9.91984151 5.36454587 17.4836045 13.1426361 21.90625 23.60546875 C23.23489252 28.21858159 23.27837646 32.89909014 23.34375 37.66796875 C23.35784912 38.42400391 23.37194824 39.18003906 23.38647461 39.95898438 C23.28880908 51.32280091 17.42352319 60.50467952 9.46875 68.35546875 C0.40255053 75.69560332 -10.70878484 78.85637861 -22.234375 78.12109375 C-32.85076365 76.67936196 -42.02819538 71.41258572 -49 63.3203125 C-56.61069494 53.14584533 -59.26447138 43.26854684 -58.03125 30.60546875 C-57.38842299 27.39133371 -56.3734615 24.58876476 -55.03125 21.60546875 C-54.70253906 20.78433594 -54.37382812 19.96320313 -54.03515625 19.1171875 C-49.07027573 7.79588554 -40.05520638 2.38913751 -29.03125 -2.39453125 C-19.71619164 -5.4995507 -8.77889095 -3.87879217 0 0 Z " fill="#F7F7F7" transform="translate(498.03125,277.39453125)"/>
<path d="M0 0 C7.64188668 5.76792084 14.14495479 13.43023315 16.453125 22.8515625 C17.99223473 35.58080394 16.87743189 47.12179185 9.140625 57.6640625 C1.7484508 66.47175942 -7.48713916 73.11963295 -19.24609375 74.1875 C-32.26891008 74.31504962 -41.73785532 71.95596451 -51.546875 62.8515625 C-60.15107542 54.3495902 -63.75794453 46.28812952 -63.859375 34.2265625 C-63.87235503 26.99308198 -63.24889335 21.22087357 -59.546875 14.8515625 C-59.11117188 14.07554687 -58.67546875 13.29953125 -58.2265625 12.5 C-52.37473973 2.9388251 -44.60849154 -2.37917611 -34.359375 -6.3984375 C-21.8582635 -8.85767255 -10.69572212 -6.82777229 0 0 Z " fill="#F7F7F7" transform="translate(329.546875,281.1484375)"/>
<path d="M0 0 C3.78472043 2.62334413 3.78472043 2.62334413 5.1640625 4.5 C5.04714817 8.33478991 2.76455979 10.2138121 0.1015625 12.75 C-0.99865234 13.80960937 -0.99865234 13.80960937 -2.12109375 14.890625 C-2.68699219 15.42171875 -3.25289063 15.9528125 -3.8359375 16.5 C-6.47226939 15.48400499 -8.81575085 14.51274946 -11.2109375 13 C-17.01969419 9.68071046 -23.24463636 8.60221933 -29.8359375 9.5 C-37.39139231 11.80248349 -41.35232894 16.94016107 -45.7109375 23.1875 C-47.99357246 29.90859183 -47.8306214 36.93662545 -45.0859375 43.5 C-43.44523003 46.74039725 -41.56020404 49.06761916 -38.8359375 51.5 C-38.8359375 52.16 -38.8359375 52.82 -38.8359375 53.5 C-31.10859873 56.64332425 -22.20746656 58.52596689 -14.1328125 55.48046875 C-13.37484375 55.15691406 -12.616875 54.83335937 -11.8359375 54.5 C-10.8459375 54.5 -9.8559375 54.5 -8.8359375 54.5 C-8.8359375 50.87 -8.8359375 47.24 -8.8359375 43.5 C-14.1159375 43.5 -19.3959375 43.5 -24.8359375 43.5 C-24.8359375 38.88 -24.8359375 34.26 -24.8359375 29.5 C-14.2759375 29.5 -3.7159375 29.5 7.1640625 29.5 C7.1640625 42.04 7.1640625 54.58 7.1640625 67.5 C4.5240625 67.5 1.8840625 67.5 -0.8359375 67.5 C-4.10339118 68.48757316 -4.10339118 68.48757316 -7.0859375 69.9375 C-17.09256418 74.48714503 -27.92977782 75.2544324 -38.46484375 71.53515625 C-52.15610237 65.55791814 -58.27470407 57.14181758 -63.8359375 43.5 C-66.98702302 34.04674344 -65.05510658 23.29589487 -60.8359375 14.5 C-56.25616306 6.54343335 -50.82097285 1.00689112 -42.8359375 -3.5 C-42.07796875 -3.933125 -41.32 -4.36625 -40.5390625 -4.8125 C-26.83424149 -11.43496385 -12.25984229 -7.47266577 0 0 Z " fill="#F8F8F8" transform="translate(421.8359375,281.5)"/>
<path d="M0 0 C6.54614511 3.32274819 10.63445449 8.08956487 14.25390625 14.36328125 C16.51321269 21.89430273 16.38039194 27.92567657 12.75390625 34.98828125 C8.87744505 41.34640219 4.6696711 45.24083233 -2.4921875 47.60546875 C-9.14421912 49.19219189 -15.01475894 48.30896673 -21.25390625 45.578125 C-26.3929786 42.39800597 -29.4031339 37.54920095 -32.05859375 32.23828125 C-33.88192497 22.10866339 -32.24875467 15.02502497 -26.93359375 6.36328125 C-19.40695944 -0.95993051 -10.17347438 -3.44169699 0 0 Z " fill="#3C3C3C" transform="translate(489.62109375,290.88671875)"/>
<path d="M0 0 C5.74355752 3.63074886 10.66286176 9.11548793 12.69140625 15.71875 C13.93378471 21.89706452 13.57449198 28.05745654 11.125 33.875 C10.465 33.875 9.805 33.875 9.125 33.875 C8.8465625 34.926875 8.8465625 34.926875 8.5625 36 C6.22938106 40.66623788 2.42568765 43.75502829 -2.2421875 46.02734375 C-8.24800847 47.9609686 -15.37136212 47.94227961 -21.1875 45.375 C-27.77037339 41.49384756 -32.73570308 35.17377773 -34.875 27.875 C-35.85612661 20.62692717 -34.64472794 14.16843936 -30.875 7.875 C-22.98021182 -1.23568831 -11.27205895 -5.82389712 0 0 Z " fill="#3C3C3C" transform="translate(316.875,292.125)"/>
<path d="M0 0 C-0.01160156 0.97235596 -0.02320313 1.94471191 -0.03515625 2.9465332 C-0.06805445 6.60568712 -0.04758953 10.26304188 -0.01220703 13.92211914 C-0.00416963 15.496004 -0.00999569 17.07003045 -0.03076172 18.64379883 C-0.16660639 29.88673309 0.91003641 36.58178475 9 45 C7.83385885 47.51007961 6.9551722 49.04346938 4.9375 51 C1.93954665 55.64199229 2.17294334 60.57822635 2 66 C5.17633724 62.93181761 8.02846792 59.79804825 10.79321289 56.34277344 C16.53910594 49.20122351 22.67773521 43.1611324 31 39 C32.87379605 38.92966231 34.75001102 38.9156978 36.625 38.9375 C38.12933594 38.95103516 38.12933594 38.95103516 39.6640625 38.96484375 C40.43492187 38.97644531 41.20578125 38.98804688 42 39 C41.44059279 43.08759028 40.17705313 45.60107989 37.796875 48.94921875 C37.14589844 49.88056641 36.49492187 50.81191406 35.82421875 51.77148438 C34.79748047 53.21491211 34.79748047 53.21491211 33.75 54.6875 C28.22420877 62.47577801 23.2749765 70.17312471 19.7890625 79.1015625 C17.57344927 81.45262807 16.74286771 81.34897222 13.5859375 81.5234375 C11.84841827 81.49952668 10.11110568 81.4490398 8.375 81.375 C7.49070313 81.36082031 6.60640625 81.34664063 5.6953125 81.33203125 C-0.81781054 81.18218946 -0.81781054 81.18218946 -2 80 C-2.10945116 78.14422829 -2.15587633 76.28467124 -2.17578125 74.42578125 C-2.19962891 73.28302734 -2.22347656 72.14027344 -2.24804688 70.96289062 C-2.2906677 68.54900211 -2.32210532 66.13488758 -2.34179688 63.72070312 C-2.51631835 55.14298778 -2.51631835 55.14298778 -7 48 C-7.63679687 47.28457031 -8.27359375 46.56914062 -8.9296875 45.83203125 C-9.57164062 45.16558594 -10.21359375 44.49914062 -10.875 43.8125 C-15.87285763 38.25308533 -20.93731552 31.56967696 -21.9375 23.9375 C-21.4162503 17.98555575 -16.0091775 13.93264401 -12 10 C-11.09121094 9.05640625 -10.18242187 8.1128125 -9.24609375 7.140625 C-2.31726695 0 -2.31726695 0 0 0 Z " fill="#F6F6F6" transform="translate(149,276)"/>
<path d="M0 0 C5.28 0 10.56 0 16 0 C16 20.79 16 41.58 16 63 C24.91 63 33.82 63 43 63 C43 67.95 43 72.9 43 78 C28.81 78 14.62 78 0 78 C0 52.26 0 26.52 0 0 Z " fill="#F9F9F9" transform="translate(221,276)"/>
<path d="M0 0 C0.1959375 0.52207031 0.391875 1.04414063 0.59375 1.58203125 C3.40588102 8.50326751 7.5117469 14.07107307 12 20 C17.1650515 27.03776023 18.85152228 33.32434549 18 42 C17.18412673 45.73038009 16.16149651 49.36340975 15 53 C11.7 53 8.4 53 5 53 C4.85304688 52.02160156 4.70609375 51.04320312 4.5546875 50.03515625 C2.47273628 37.39981042 -2.38454936 30.44266827 -11.14453125 21.06640625 C-13.29022467 18.67678136 -13.91291134 17.46810155 -14.5 14.3125 C-13.76965658 9.47397483 -10.81347046 6.91618329 -7 4 C-6.34 4 -5.68 4 -5 4 C-5 3.34 -5 2.68 -5 2 C-2 0 -2 0 0 0 Z " fill="#F5F5F5" transform="translate(121,304)"/>
<path d="M0 0 C3.6875 0.3125 3.6875 0.3125 5.7109375 1.765625 C8.94051483 5.92705666 10.20763316 10.86285952 11.77929688 15.84570312 C13.23580354 20.24891017 13.23580354 20.24891017 16.35717773 23.49682617 C18.4362209 24.44358952 18.4362209 24.44358952 21.6875 25.3125 C22.821875 25.704375 23.95625 26.09625 25.125 26.5 C25.970625 26.768125 26.81625 27.03625 27.6875 27.3125 C25.01435357 33.25862084 19.68140671 38.59154505 13.921875 41.65625 C8.74547 43.17659273 2.9927893 43.07629651 -2.3125 42.3125 C-4.89413618 38.44004573 -4.58264859 35.22942973 -4.54296875 30.7421875 C-4.54251053 29.90535431 -4.54205231 29.06852112 -4.5415802 28.20632935 C-4.53856112 26.43945902 -4.5306851 24.67259129 -4.51831055 22.90576172 C-4.50002348 20.19098566 -4.4978011 17.47655004 -4.49804688 14.76171875 C-4.49313279 13.04687203 -4.48730494 11.33202763 -4.48046875 9.6171875 C-4.47935593 8.80055634 -4.4782431 7.98392517 -4.47709656 7.14254761 C-4.41996416 0.41697775 -4.41996416 0.41697775 0 0 Z " fill="#F7F7F7" transform="translate(161.3125,270.6875)"/>
<path d="M0 0 C8.58 0 17.16 0 26 0 C24.72839506 11.44444444 24.72839506 11.44444444 20 16 C14.07053854 19.75129195 7.88056039 19.56433618 1 19 C0 18 0 18 -0.11352539 16.23413086 C-0.10828857 15.48526611 -0.10305176 14.73640137 -0.09765625 13.96484375 C-0.09515869 13.23644287 -0.09266113 12.50804199 -0.09008789 11.75756836 C-0.08098389 10.8269458 -0.07187988 9.89632324 -0.0625 8.9375 C-0.041875 5.988125 -0.02125 3.03875 0 0 Z " fill="#F7F7F7" transform="translate(180,271)"/>
<path d="M0 0 C3.19993075 2.77016659 3.92669659 4.33367197 4.390625 8.55078125 C4.26041667 12.03385417 4.13020833 15.51692708 4 19 C-4.25 19 -12.5 19 -21 19 C-19.81205556 4.74466667 -19.81205556 4.74466667 -16.21484375 1.15625 C-11.29278741 -1.41328911 -5.30480608 -1.20157053 0 0 Z " fill="#F7F7F7" transform="translate(202,338)"/>
<path d="M0 0 C1.875 0.25 1.875 0.25 4 1 C5.125 3 5.125 3 6 5 C6.66 5.33 7.32 5.66 8 6 C8.33 6.33 8.66 6.66 9 7 C9.33 6.01 9.66 5.02 10 4 C11.00578589 5.28716647 12.00446798 6.57988658 13 7.875 C13.556875 8.59429687 14.11375 9.31359375 14.6875 10.0546875 C16 12 16 12 16 14 C16.99 14.33 17.98 14.66 19 15 C25.62938345 21.65515065 25.95198358 28.97283348 26 37.9375 C26.03738281 39.16791016 26.07476562 40.39832031 26.11328125 41.66601562 C26.2502841 48.21691505 26.2502841 48.21691505 26 51 C25.34 51.66 24.68 52.32 24 53 C22.0625 52.3125 22.0625 52.3125 20 51 C19.375 48.4375 19.375 48.4375 19 46 C18.34 45.67 17.68 45.34 17 45 C16.34 45.66 15.68 46.32 15 47 C15.165 46.05125 15.33 45.1025 15.5 44.125 C17.27649119 30.97366223 14.18824585 23.69422246 6.3125 13.3125 C5.81258545 12.68255127 5.3126709 12.05260254 4.79760742 11.40356445 C1.87448168 7.62763232 0.32525152 4.9241568 0 0 Z " fill="#3D3D3D" transform="translate(122,306)"/>
<path d="M0 0 C0 3.59760476 -0.89512296 4.2215623 -3 7 C-3.165 7.680625 -3.33 8.36125 -3.5 9.0625 C-4.45387551 12.75876761 -7.8457175 14.70989245 -10.8125 16.875 C-11.51890625 17.40222656 -12.2253125 17.92945313 -12.953125 18.47265625 C-13.62859375 18.97667969 -14.3040625 19.48070312 -15 20 C-20.33644085 24.02955738 -24.04488509 28.6783977 -28 34 C-29.28617991 35.70331934 -30.59818376 37.39050729 -32 39 C-32.66 39 -33.32 39 -34 39 C-34.92017937 28.62242152 -34.92017937 28.62242152 -32.6640625 24.64453125 C-31.18840574 22.9644995 -29.70676104 21.44261945 -28 20 C-29.2945064 17.36433832 -30.65769236 14.79333324 -32.125 12.25 C-32.74375 11.1775 -33.3625 10.105 -34 9 C-32.68 9.33 -31.36 9.66 -30 10 C-30 8.68 -30 7.36 -30 6 C-27 7 -27 7 -26 9 C-17.67170408 9.63972686 -11.54656177 9.85345605 -4.76953125 4.60546875 C-3.1270525 3.11527279 -1.54395568 1.59175616 0 0 Z " fill="#404040" transform="translate(185,303)"/>
<path d="M0 0 C1 3 1 3 0 6 C0.99 6.33 1.98 6.66 3 7 C3.20086443 10.71599191 3.1519437 11.77208445 1 15 C0.55570562 17.04869074 0.18705805 19.11454293 -0.125 21.1875 C-0.41375 23.105625 -0.7025 25.02375 -1 27 C6.92 27 14.84 27 23 27 C23 27.33 23 27.66 23 28 C14.75 28 6.5 28 -2 28 C-2.66 24.37 -3.32 20.74 -4 17 C-4.66 16.67 -5.32 16.34 -6 16 C-8.11683841 16.89163577 -8.11683841 16.89163577 -10 18 C-8.64737628 13.25869791 -6.66645646 9.67711421 -3.875 5.625 C-3.15054688 4.56539063 -2.42609375 3.50578125 -1.6796875 2.4140625 C-0.84824219 1.21910156 -0.84824219 1.21910156 0 0 Z " fill="#575757" transform="translate(182,330)"/>
<path d="M0 0 C0.66 0.33 1.32 0.66 2 1 C1.67 1.99 1.34 2.98 1 4 C0.34 4 -0.32 4 -1 4 C-1 4.66 -1 5.32 -1 6 C-0.34 6.33 0.32 6.66 1 7 C0.01 8.485 0.01 8.485 -1 10 C-1.12375 10.61875 -1.2475 11.2375 -1.375 11.875 C-2.25540608 14.86838067 -3.91167572 16.72182806 -6 19 C-6.66 19 -7.32 19 -8 19 C-9.22690583 8.62242152 -9.22690583 8.62242152 -6.21875 4.64453125 C-4.21680032 2.93511999 -2.22223379 1.40873749 0 0 Z " fill="#383838" transform="translate(159,323)"/>
<path d="M0 0 C1.875 0.25 1.875 0.25 4 1 C5.125 3 5.125 3 6 5 C6.66 5.33 7.32 5.66 8 6 C8.33 6.33 8.66 6.66 9 7 C9.33 6.01 9.66 5.02 10 4 C11.00578589 5.28716647 12.00446798 6.57988658 13 7.875 C13.556875 8.59429687 14.11375 9.31359375 14.6875 10.0546875 C16 12 16 12 16 14 C16.99 14.33 17.98 14.66 19 15 C16 16 16 16 13 16 C12.71125 15.360625 12.4225 14.72125 12.125 14.0625 C11.17176549 11.84793921 11.17176549 11.84793921 9 11 C8.67 11.66 8.34 12.32 8 13 C4.55137873 11.85045958 4.15804191 11.17472849 2.3125 8.1875 C1.87550781 7.50042969 1.43851562 6.81335938 0.98828125 6.10546875 C0 4 0 4 0 0 Z " fill="#3C3C3C" transform="translate(122,306)"/>
<path d="M0 0 C0.66 0.33 1.32 0.66 2 1 C1.01 2.485 1.01 2.485 0 4 C0.33 4.99 0.66 5.98 1 7 C-0.98 8.32 -2.96 9.64 -5 11 C-5.33 10.01 -5.66 9.02 -6 8 C-5.34 8 -4.68 8 -4 8 C-4 7.34 -4 6.68 -4 6 C-4.66 5.67 -5.32 5.34 -6 5 C-5.67 4.67 -5.34 4.34 -5 4 C-8.3 3.67 -11.6 3.34 -15 3 C-15 2.67 -15 2.34 -15 2 C-14.08476562 1.93941406 -13.16953125 1.87882812 -12.2265625 1.81640625 C-10.44378906 1.69072266 -10.44378906 1.69072266 -8.625 1.5625 C-7.44164062 1.48128906 -6.25828125 1.40007812 -5.0390625 1.31640625 C-2.08481099 1.18915064 -2.08481099 1.18915064 0 0 Z " fill="#545454" transform="translate(175,311)"/>
<path d="M0 0 C0 0.33 0 0.66 0 1 C-0.60585938 1.09796875 -1.21171875 1.1959375 -1.8359375 1.296875 C-7.56317218 2.31896611 -12.57229513 3.88597034 -17.87109375 6.29296875 C-20 7 -20 7 -23 6 C-15.3775515 0.21863951 -9.45756308 -0.8004834 0 0 Z " fill="#626262" transform="translate(487,290)"/>
<path d="M0 0 C0.598125 0.763125 1.19625 1.52625 1.8125 2.3125 C3.84004112 4.91335259 3.84004112 4.91335259 5.75 6.6875 C7 8 7 8 7 10 C7.99 10.33 8.98 10.66 10 11 C7 12 7 12 4 12 C1.89229241 9.11165997 1 7.61537605 1 4 C0.01 4.33 -0.98 4.66 -2 5 C-2 4.34 -2 3.68 -2 3 C-1.34 3 -0.68 3 0 3 C0 2.01 0 1.02 0 0 Z " fill="#4C4C4C" transform="translate(131,310)"/>
<path d="M0 0 C0.99 0.33 1.98 0.66 3 1 C2.01 1.495 2.01 1.495 1 2 C0.814375 3.2065625 0.814375 3.2065625 0.625 4.4375 C0 7 0 7 -1.875 8.3125 C-4 9 -4 9 -7 9 C-7 7 -7 7 -4.625 4.5 C-3.75875 3.675 -2.8925 2.85 -2 2 C-1.34 1.34 -0.68 0.68 0 0 Z " fill="#EDEDED" transform="translate(158,335)"/>
<path d="M0 0 C3.63 0.33 7.26 0.66 11 1 C7.730187 4.87533393 7.730187 4.87533393 4.4375 5.4375 C1.63751034 4.93493775 0.73892405 4.19653565 -1 2 C-0.67 1.34 -0.34 0.68 0 0 Z " fill="#353535" transform="translate(157,313)"/>
<path d="M0 0 C0.33 0 0.66 0 1 0 C0.92909792 3.07457214 0.7412019 6.00872091 0 9 C-2.4375 11.125 -2.4375 11.125 -5 12 C-5.66 11.67 -6.32 11.34 -7 11 C-5.85845641 9.16399255 -4.71165684 7.33125195 -3.5625 5.5 C-2.92441406 4.4790625 -2.28632812 3.458125 -1.62890625 2.40625 C-0.82259766 1.21515625 -0.82259766 1.21515625 0 0 Z " fill="#505050" transform="translate(518,330)"/>
<path d="M0 0 C0.99 0.495 0.99 0.495 2 1 C1.01 1.495 1.01 1.495 0 2 C0 1.34 0 0.68 0 0 Z M-2 2 C-1.34 2.33 -0.68 2.66 0 3 C-0.78375 3.680625 -1.5675 4.36125 -2.375 5.0625 C-5.45850521 8.51308916 -6.04357515 10.56566662 -7 15 C-7.66 15 -8.32 15 -9 15 C-9.4375 12.4375 -9.4375 12.4375 -9 9 C-6.91317274 6.3796981 -4.53313752 4.1841849 -2 2 Z " fill="#DCDCDC" transform="translate(116,306)"/>
<path d="M0 0 C0.99386719 0.00902344 1.98773438 0.01804687 3.01171875 0.02734375 C4.15060547 0.04474609 4.15060547 0.04474609 5.3125 0.0625 C5.3125 0.3925 5.3125 0.7225 5.3125 1.0625 C2.3425 1.0625 -0.6275 1.0625 -3.6875 1.0625 C-3.6875 1.7225 -3.6875 2.3825 -3.6875 3.0625 C-6.64414519 4.5408226 -9.42979737 4.12282783 -12.6875 4.0625 C-8.41027069 0.67021469 -5.42406114 -0.06381248 0 0 Z " fill="#676767" transform="translate(306.6875,289.9375)"/>
<path d="M0 0 C0.99 0 1.98 0 3 0 C1.33248852 3.94139078 -1.22710649 6.7892812 -4 10 C-4.66 8.68 -5.32 7.36 -6 6 C-5.34 6 -4.68 6 -4 6 C-3.67 5.01 -3.34 4.02 -3 3 C-2.34 3 -1.68 3 -1 3 C-0.67 2.01 -0.34 1.02 0 0 Z " fill="#444444" transform="translate(278,281)"/>
<path d="M0 0 C0.33 0 0.66 0 1 0 C1.33 2.31 1.66 4.62 2 7 C3.32 6.01 4.64 5.02 6 4 C6 7.93169105 4.60580385 9.16427228 2 12 C1.34 12 0.68 12 0 12 C0 8.04 0 4.08 0 0 Z " fill="#707070" transform="translate(151,330)"/>
<path d="M0 0 C-1.98 2.31 -3.96 4.62 -6 7 C-8 3 -8 3 -8 1 C-3.375 -1.125 -3.375 -1.125 0 0 Z " fill="#484848" transform="translate(501,328)"/>
<path d="M0 0 C0.33 0.99 0.66 1.98 1 3 C0.01 4.485 0.01 4.485 -1 6 C-1 7.32 -1 8.64 -1 10 C-1.99 10.66 -2.98 11.32 -4 12 C-5 9 -5 9 -4.2578125 6.9921875 C-3.88398438 6.29351562 -3.51015625 5.59484375 -3.125 4.875 C-2.75632812 4.17117188 -2.38765625 3.46734375 -2.0078125 2.7421875 C-1 1 -1 1 0 0 Z " fill="#4C4C4C" transform="translate(463,297)"/>
<path d="M0 0 C4.95 0 9.9 0 15 0 C14 2 14 2 12.265625 2.68359375 C9.52432073 3.06643107 7.44585806 2.66552088 4.75 2.0625 C3.85796875 1.86785156 2.9659375 1.67320312 2.046875 1.47265625 C1.37140625 1.31667969 0.6959375 1.16070312 0 1 C0 0.67 0 0.34 0 0 Z " fill="#F5F5F5" transform="translate(222,276)"/>
<path d="M0 0 C-0.4793247 4.31392226 -1.7457985 6.16569547 -5 9 C-5.33 8.01 -5.66 7.02 -6 6 C-5.34 5.34 -4.68 4.68 -4 4 C-4.33 3.01 -4.66 2.02 -5 1 C-3 0 -3 0 0 0 Z " fill="#484848" transform="translate(163,326)"/>
<path d="M0 0 C-0.99 1.485 -0.99 1.485 -2 3 C-2.66 2.67 -3.32 2.34 -4 2 C-4 2.66 -4 3.32 -4 4 C-7.63 3.34 -11.26 2.68 -15 2 C-15 1.67 -15 1.34 -15 1 C-12.87630763 0.63807496 -10.7509887 0.28568253 -8.625 -0.0625 C-6.84996094 -0.35833984 -6.84996094 -0.35833984 -5.0390625 -0.66015625 C-2 -1 -2 -1 0 0 Z " fill="#E9E9E9" transform="translate(410,338)"/>
<path d="M0 0 C0.33 0 0.66 0 1 0 C1.22134176 2.12368444 1.42670007 4.24904024 1.625 6.375 C1.74101562 7.55835938 1.85703125 8.74171875 1.9765625 9.9609375 C1.98429688 10.96382813 1.99203125 11.96671875 2 13 C1.34 13.66 0.68 14.32 0 15 C-0.99 14.34 -1.98 13.68 -3 13 C-2 10 -2 10 -1 9 C-0.76807135 7.48530552 -0.58784762 5.96245438 -0.4375 4.4375 C-0.35371094 3.61121094 -0.26992187 2.78492188 -0.18359375 1.93359375 C-0.12300781 1.29550781 -0.06242188 0.65742188 0 0 Z " fill="#494949" transform="translate(146,344)"/>
<path d="M0 0 C1.98 0.66 3.96 1.32 6 2 C5.67 3.32 5.34 4.64 5 6 C3.02 5.34 1.04 4.68 -1 4 C-0.67 2.68 -0.34 1.36 0 0 Z " fill="#464646" transform="translate(384,331)"/>
<path d="M0 0 C0.66 1.32 1.32 2.64 2 4 C0.35 5.98 -1.3 7.96 -3 10 C-4.2077558 6.37673261 -3.54311128 5.35853631 -2 2 C-1.34 2 -0.68 2 0 2 C0 1.34 0 0.68 0 0 Z " fill="#434343" transform="translate(324,324)"/>
<path d="M0 0 C1.32 0.33 2.64 0.66 4 1 C4.625 3.875 4.625 3.875 5 7 C4.34 7.66 3.68 8.32 3 9 C0.70620251 5.55930376 0 4.27709699 0 0 Z " fill="#454545" transform="translate(122,306)"/>
<path d="M0 0 C2.31 0.66 4.62 1.32 7 2 C6.34 3.32 5.68 4.64 5 6 C2.03 5.505 2.03 5.505 -1 5 C-0.67 3.35 -0.34 1.7 0 0 Z " fill="#464646" transform="translate(465,352)"/>
<path d="M0 0 C0 1.32 0 2.64 0 4 C-1.32 4.33 -2.64 4.66 -4 5 C-4.66 3.35 -5.32 1.7 -6 0 C-3 -1 -3 -1 0 0 Z " fill="#434343" transform="translate(464,274)"/>
<path d="M0 0 C0.66 0 1.32 0 2 0 C1.835 0.598125 1.67 1.19625 1.5 1.8125 C0.8885876 4.11344336 0.8885876 4.11344336 1 7 C0.01 7.33 -0.98 7.66 -2 8 C-2.125 5.125 -2.125 5.125 -2 2 C-1.34 1.34 -0.68 0.68 0 0 Z " fill="#424242" transform="translate(154,327)"/>
<path d="M0 0 C1.2065625 0.0309375 1.2065625 0.0309375 2.4375 0.0625 C2.4375 2.68363708 2.12457555 4.57185112 1.4375 7.0625 C-0.2125 5.0825 -1.8625 3.1025 -3.5625 1.0625 C-2.5625 0.0625 -2.5625 0.0625 0 0 Z " fill="#484848" transform="translate(291.5625,328.9375)"/>
<path d="M0 0 C0.66 0.33 1.32 0.66 2 1 C2 1.99 2 2.98 2 4 C-1.6208201 5.01382963 -5.27811418 5.49897691 -9 6 C-6 4 -3 2 0 0 Z " fill="#5A5A5A" transform="translate(505,346)"/>
<path d="M0 0 C0.66 0.33 1.32 0.66 2 1 C1.875 2.875 1.875 2.875 1 5 C-2.0625 6.25 -2.0625 6.25 -5 7 C-3.47793991 4.37098712 -2.15634036 2.15634036 0 0 Z " fill="#DCDCDC" transform="translate(167,324)"/>
<path d="M0 0 C0.99 0.33 1.98 0.66 3 1 C3.6875 3.0625 3.6875 3.0625 4 5 C2.02 5.66 0.04 6.32 -2 7 C-2.66 5.68 -3.32 4.36 -4 3 C-2.68 3.33 -1.36 3.66 0 4 C0 2.68 0 1.36 0 0 Z " fill="#4A4A4A" transform="translate(155,309)"/>
<path d="M0 0 C1.21236328 0.01353516 1.21236328 0.01353516 2.44921875 0.02734375 C3.37154297 0.04474609 3.37154297 0.04474609 4.3125 0.0625 C4.3125 0.3925 4.3125 0.7225 4.3125 1.0625 C2.9203125 1.2171875 2.9203125 1.2171875 1.5 1.375 C-1.72004358 2.0695192 -2.71329865 2.53990939 -4.6875 5.0625 C-5.0175 4.0725 -5.3475 3.0825 -5.6875 2.0625 C-6.3475 1.7325 -7.0075 1.4025 -7.6875 1.0625 C-4.80538698 0.10179566 -2.98899956 -0.04331883 0 0 Z " fill="#6B6B6B" transform="translate(396.6875,289.9375)"/>
<path d="M0 0 C0.66 0.33 1.32 0.66 2 1 C2.625 3.5625 2.625 3.5625 3 6 C2.01 6 1.02 6 0 6 C-1.6875 3.5 -1.6875 3.5 -3 1 C-2.01 0.67 -1.02 0.34 0 0 Z " fill="#434343" transform="translate(131,317)"/>
<path d="M0 0 C2.625 0.9375 2.625 0.9375 5 2 C4.67 2.99 4.34 3.98 4 5 C-0.875 3.25 -0.875 3.25 -2 1 C-1.34 0.67 -0.68 0.34 0 0 Z " fill="#E8E8E8" transform="translate(459,346)"/>
<path d="M0 0 C0.99 0.495 0.99 0.495 2 1 C2 1.99 2 2.98 2 4 C2.66 4 3.32 4 4 4 C4 5.32 4 6.64 4 8 C2.68 7.67 1.36 7.34 0 7 C0 4.69 0 2.38 0 0 Z " fill="#383838" transform="translate(133,318)"/>
<path d="M0 0 C0.66 0 1.32 0 2 0 C0.55746343 3.36591866 -1.33264727 5.51047079 -4 8 C-4.99 7.67 -5.98 7.34 -7 7 C-6.21625 6.401875 -5.4325 5.80375 -4.625 5.1875 C-1.85425677 3.08914751 -1.85425677 3.08914751 0 0 Z " fill="#E0E0E0" transform="translate(500,328)"/>
<path d="M0 0 C0.99 0.33 1.98 0.66 3 1 C3 1.66 3 2.32 3 3 C3.99 3.33 4.98 3.66 6 4 C3 5 3 5 0 5 C0 3.35 0 1.7 0 0 Z " fill="#525252" transform="translate(135,317)"/>
<path d="M0 0 C3.3 0.33 6.6 0.66 10 1 C9.67 1.66 9.34 2.32 9 3 C5.26512223 2.5020163 3.18762365 2.12508244 0 0 Z " fill="#4B4B4B" transform="translate(398,291)"/>
</svg>
